%TF.GenerationSoftware,KiCad,Pcbnew,6.0.2+dfsg-1*%
%TF.CreationDate,2024-03-03T02:30:22+01:00*%
%TF.ProjectId,RACK_CONNECTOR_V2,5241434b-5f43-44f4-9e4e-4543544f525f,rev?*%
%TF.SameCoordinates,Original*%
%TF.FileFunction,Soldermask,Bot*%
%TF.FilePolarity,Negative*%
%FSLAX46Y46*%
G04 Gerber Fmt 4.6, Leading zero omitted, Abs format (unit mm)*
G04 Created by KiCad (PCBNEW 6.0.2+dfsg-1) date 2024-03-03 02:30:22*
%MOMM*%
%LPD*%
G01*
G04 APERTURE LIST*
G04 Aperture macros list*
%AMRoundRect*
0 Rectangle with rounded corners*
0 $1 Rounding radius*
0 $2 $3 $4 $5 $6 $7 $8 $9 X,Y pos of 4 corners*
0 Add a 4 corners polygon primitive as box body*
4,1,4,$2,$3,$4,$5,$6,$7,$8,$9,$2,$3,0*
0 Add four circle primitives for the rounded corners*
1,1,$1+$1,$2,$3*
1,1,$1+$1,$4,$5*
1,1,$1+$1,$6,$7*
1,1,$1+$1,$8,$9*
0 Add four rect primitives between the rounded corners*
20,1,$1+$1,$2,$3,$4,$5,0*
20,1,$1+$1,$4,$5,$6,$7,0*
20,1,$1+$1,$6,$7,$8,$9,0*
20,1,$1+$1,$8,$9,$2,$3,0*%
G04 Aperture macros list end*
%ADD10C,7.000000*%
%ADD11R,1.700000X1.700000*%
%ADD12O,1.700000X1.700000*%
%ADD13C,5.120000*%
%ADD14RoundRect,0.102000X2.458000X2.458000X-2.458000X2.458000X-2.458000X-2.458000X2.458000X-2.458000X0*%
%ADD15O,1.504000X2.804000*%
%ADD16RoundRect,0.102000X-2.458000X-2.458000X2.458000X-2.458000X2.458000X2.458000X-2.458000X2.458000X0*%
%ADD17RoundRect,0.102000X0.787500X0.787500X-0.787500X0.787500X-0.787500X-0.787500X0.787500X-0.787500X0*%
%ADD18C,1.779000*%
%ADD19C,4.320000*%
%ADD20RoundRect,0.102000X-0.787500X-0.787500X0.787500X-0.787500X0.787500X0.787500X-0.787500X0.787500X0*%
G04 APERTURE END LIST*
D10*
X263350000Y-107685201D02*
X263400000Y-107635201D01*
X263400000Y-107635201D02*
X263400000Y-98205201D01*
X263400000Y-98205201D02*
X263350000Y-107685201D01*
X252450000Y-107685201D02*
X252500000Y-107635201D01*
X252500000Y-107635201D02*
X252500000Y-98205201D01*
X252500000Y-98205201D02*
X252450000Y-107685201D01*
X203280000Y-107645201D02*
X203330000Y-107595201D01*
X203330000Y-107595201D02*
X203330000Y-98165201D01*
X203330000Y-98165201D02*
X203280000Y-107645201D01*
X192390000Y-107685201D02*
X192440000Y-107635201D01*
X192440000Y-107635201D02*
X192440000Y-98205201D01*
X192440000Y-98205201D02*
X192390000Y-107685201D01*
X143340000Y-107685201D02*
X143390000Y-107635201D01*
X143390000Y-107635201D02*
X143390000Y-98205201D01*
X143390000Y-98205201D02*
X143340000Y-107685201D01*
X132390141Y-107645201D02*
X132440141Y-107595201D01*
X132440141Y-107595201D02*
X132440141Y-98165201D01*
X132440141Y-98165201D02*
X132390141Y-107645201D01*
X72440141Y-107645201D02*
X72490141Y-107595201D01*
X72490141Y-107595201D02*
X72490141Y-98165201D01*
X72490141Y-98165201D02*
X72440141Y-107645201D01*
X83300000Y-107680000D02*
X83350000Y-107630000D01*
X83350000Y-107630000D02*
X83350000Y-98200000D01*
X83350000Y-98200000D02*
X83300000Y-107680000D01*
D11*
%TO.C,J28*%
X57460000Y-83150000D03*
D12*
X54920000Y-83150000D03*
X52380000Y-83150000D03*
X49840000Y-83150000D03*
X47300000Y-83150000D03*
X44760000Y-83150000D03*
X42220000Y-83150000D03*
X39680000Y-83150000D03*
X37140000Y-83150000D03*
%TD*%
%TO.C,J27*%
X217170000Y-83140000D03*
X219710000Y-83140000D03*
X222250000Y-83140000D03*
X224790000Y-83140000D03*
X227330000Y-83140000D03*
X229870000Y-83140000D03*
X232410000Y-83140000D03*
X234950000Y-83140000D03*
D11*
X237490000Y-83140000D03*
%TD*%
%TO.C,J26*%
X117500000Y-83150000D03*
D12*
X114960000Y-83150000D03*
X112420000Y-83150000D03*
X109880000Y-83150000D03*
X107340000Y-83150000D03*
X104800000Y-83150000D03*
X102260000Y-83150000D03*
X99720000Y-83150000D03*
X97180000Y-83150000D03*
%TD*%
D11*
%TO.C,J25*%
X177500000Y-83150000D03*
D12*
X174960000Y-83150000D03*
X172420000Y-83150000D03*
X169880000Y-83150000D03*
X167340000Y-83150000D03*
X164800000Y-83150000D03*
X162260000Y-83150000D03*
X159720000Y-83150000D03*
X157180000Y-83150000D03*
%TD*%
D13*
%TO.C,J24*%
X72450000Y-98200000D03*
D14*
X83350000Y-98200000D03*
D15*
X87350000Y-88800000D03*
X68450000Y-88800000D03*
%TD*%
%TO.C,J23*%
X128490000Y-88820000D03*
X147390000Y-88820000D03*
D14*
X143390000Y-98220000D03*
D13*
X132490000Y-98220000D03*
%TD*%
D15*
%TO.C,J22*%
X188480000Y-88830000D03*
X207380000Y-88830000D03*
D14*
X203380000Y-98230000D03*
D13*
X192480000Y-98230000D03*
%TD*%
D15*
%TO.C,J21*%
X248500000Y-88820000D03*
X267400000Y-88820000D03*
D14*
X263400000Y-98220000D03*
D13*
X252500000Y-98220000D03*
%TD*%
D15*
%TO.C,J20*%
X68400000Y-116580000D03*
X87300000Y-116580000D03*
D16*
X83300000Y-107680000D03*
D13*
X72400000Y-107680000D03*
%TD*%
D15*
%TO.C,J19*%
X128370000Y-116580000D03*
X147270000Y-116580000D03*
D16*
X143270000Y-107680000D03*
D13*
X132370000Y-107680000D03*
%TD*%
D15*
%TO.C,J18*%
X188410000Y-116590000D03*
X207310000Y-116590000D03*
D16*
X203310000Y-107690000D03*
D13*
X192410000Y-107690000D03*
%TD*%
D15*
%TO.C,J17*%
X248410000Y-116580000D03*
X267310000Y-116580000D03*
D16*
X263310000Y-107680000D03*
D13*
X252410000Y-107680000D03*
%TD*%
D17*
%TO.C,J16*%
X41765000Y-90860000D03*
D18*
X44535000Y-90860000D03*
X47305000Y-90860000D03*
X50075000Y-90860000D03*
X52845000Y-90860000D03*
X43150000Y-88020000D03*
X45920000Y-88020000D03*
X48690000Y-88020000D03*
X51460000Y-88020000D03*
D19*
X59800000Y-89440000D03*
X34810000Y-89440000D03*
%TD*%
%TO.C,J15*%
X214845000Y-89440000D03*
X239835000Y-89440000D03*
D18*
X231495000Y-88020000D03*
X228725000Y-88020000D03*
X225955000Y-88020000D03*
X223185000Y-88020000D03*
X232880000Y-90860000D03*
X230110000Y-90860000D03*
X227340000Y-90860000D03*
X224570000Y-90860000D03*
D17*
X221800000Y-90860000D03*
%TD*%
D19*
%TO.C,J14*%
X94845000Y-89450000D03*
X119835000Y-89450000D03*
D18*
X111495000Y-88030000D03*
X108725000Y-88030000D03*
X105955000Y-88030000D03*
X103185000Y-88030000D03*
X112880000Y-90870000D03*
X110110000Y-90870000D03*
X107340000Y-90870000D03*
X104570000Y-90870000D03*
D17*
X101800000Y-90870000D03*
%TD*%
D19*
%TO.C,J13*%
X154845000Y-89450000D03*
X179835000Y-89450000D03*
D18*
X171495000Y-88030000D03*
X168725000Y-88030000D03*
X165955000Y-88030000D03*
X163185000Y-88030000D03*
X172880000Y-90870000D03*
X170110000Y-90870000D03*
X167340000Y-90870000D03*
X164570000Y-90870000D03*
D17*
X161800000Y-90870000D03*
%TD*%
D12*
%TO.C,J12*%
X37140000Y-94540000D03*
X39680000Y-94540000D03*
X42220000Y-94540000D03*
X44760000Y-94540000D03*
X47300000Y-94540000D03*
X49840000Y-94540000D03*
X52380000Y-94540000D03*
X54920000Y-94540000D03*
D11*
X57460000Y-94540000D03*
%TD*%
%TO.C,J11*%
X237500000Y-94550000D03*
D12*
X234960000Y-94550000D03*
X232420000Y-94550000D03*
X229880000Y-94550000D03*
X227340000Y-94550000D03*
X224800000Y-94550000D03*
X222260000Y-94550000D03*
X219720000Y-94550000D03*
X217180000Y-94550000D03*
%TD*%
%TO.C,J10*%
X97180000Y-94560000D03*
X99720000Y-94560000D03*
X102260000Y-94560000D03*
X104800000Y-94560000D03*
X107340000Y-94560000D03*
X109880000Y-94560000D03*
X112420000Y-94560000D03*
X114960000Y-94560000D03*
D11*
X117500000Y-94560000D03*
%TD*%
D12*
%TO.C,J9*%
X157180000Y-94550000D03*
X159720000Y-94550000D03*
X162260000Y-94550000D03*
X164800000Y-94550000D03*
X167340000Y-94550000D03*
X169880000Y-94550000D03*
X172420000Y-94550000D03*
X174960000Y-94550000D03*
D11*
X177500000Y-94550000D03*
%TD*%
D12*
%TO.C,J8*%
X117450000Y-104720000D03*
X114910000Y-104720000D03*
X112370000Y-104720000D03*
X109830000Y-104720000D03*
X107290000Y-104720000D03*
X104750000Y-104720000D03*
X102210000Y-104720000D03*
X99670000Y-104720000D03*
D11*
X97130000Y-104720000D03*
%TD*%
D12*
%TO.C,J7*%
X177450000Y-104710000D03*
X174910000Y-104710000D03*
X172370000Y-104710000D03*
X169830000Y-104710000D03*
X167290000Y-104710000D03*
X164750000Y-104710000D03*
X162210000Y-104710000D03*
X159670000Y-104710000D03*
D11*
X157130000Y-104710000D03*
%TD*%
D12*
%TO.C,J6*%
X237450000Y-104720000D03*
X234910000Y-104720000D03*
X232370000Y-104720000D03*
X229830000Y-104720000D03*
X227290000Y-104720000D03*
X224750000Y-104720000D03*
X222210000Y-104720000D03*
X219670000Y-104720000D03*
D11*
X217130000Y-104720000D03*
%TD*%
D12*
%TO.C,J5*%
X57450000Y-104740000D03*
X54910000Y-104740000D03*
X52370000Y-104740000D03*
X49830000Y-104740000D03*
X47290000Y-104740000D03*
X44750000Y-104740000D03*
X42210000Y-104740000D03*
X39670000Y-104740000D03*
D11*
X37130000Y-104740000D03*
%TD*%
D19*
%TO.C,J4*%
X119795000Y-109800000D03*
X94805000Y-109800000D03*
D18*
X103145000Y-111220000D03*
X105915000Y-111220000D03*
X108685000Y-111220000D03*
X111455000Y-111220000D03*
X101760000Y-108380000D03*
X104530000Y-108380000D03*
X107300000Y-108380000D03*
X110070000Y-108380000D03*
D20*
X112840000Y-108380000D03*
%TD*%
%TO.C,J3*%
X172840000Y-108380000D03*
D18*
X170070000Y-108380000D03*
X167300000Y-108380000D03*
X164530000Y-108380000D03*
X161760000Y-108380000D03*
X171455000Y-111220000D03*
X168685000Y-111220000D03*
X165915000Y-111220000D03*
X163145000Y-111220000D03*
D19*
X154805000Y-109800000D03*
X179795000Y-109800000D03*
%TD*%
%TO.C,J2*%
X239795000Y-109800000D03*
X214805000Y-109800000D03*
D18*
X223145000Y-111220000D03*
X225915000Y-111220000D03*
X228685000Y-111220000D03*
X231455000Y-111220000D03*
X221760000Y-108380000D03*
X224530000Y-108380000D03*
X227300000Y-108380000D03*
X230070000Y-108380000D03*
D20*
X232840000Y-108380000D03*
%TD*%
D19*
%TO.C,J1*%
X59795000Y-109830000D03*
X34805000Y-109830000D03*
D18*
X43145000Y-111250000D03*
X45915000Y-111250000D03*
X48685000Y-111250000D03*
X51455000Y-111250000D03*
X41760000Y-108410000D03*
X44530000Y-108410000D03*
X47300000Y-108410000D03*
X50070000Y-108410000D03*
D20*
X52840000Y-108410000D03*
%TD*%
M02*
