%TF.GenerationSoftware,KiCad,Pcbnew,6.0.2+dfsg-1*%
%TF.CreationDate,2024-03-03T02:30:22+01:00*%
%TF.ProjectId,RACK_CONNECTOR_V2,5241434b-5f43-44f4-9e4e-4543544f525f,rev?*%
%TF.SameCoordinates,Original*%
%TF.FileFunction,Legend,Top*%
%TF.FilePolarity,Positive*%
%FSLAX46Y46*%
G04 Gerber Fmt 4.6, Leading zero omitted, Abs format (unit mm)*
G04 Created by KiCad (PCBNEW 6.0.2+dfsg-1) date 2024-03-03 02:30:22*
%MOMM*%
%LPD*%
G01*
G04 APERTURE LIST*
%ADD10C,0.150000*%
%ADD11C,0.120000*%
%ADD12C,0.127000*%
%ADD13C,0.200000*%
G04 APERTURE END LIST*
D10*
%TO.C,J28*%
X59530476Y-82382380D02*
X59530476Y-83096666D01*
X59482857Y-83239523D01*
X59387619Y-83334761D01*
X59244761Y-83382380D01*
X59149523Y-83382380D01*
X59959047Y-82477619D02*
X60006666Y-82430000D01*
X60101904Y-82382380D01*
X60340000Y-82382380D01*
X60435238Y-82430000D01*
X60482857Y-82477619D01*
X60530476Y-82572857D01*
X60530476Y-82668095D01*
X60482857Y-82810952D01*
X59911428Y-83382380D01*
X60530476Y-83382380D01*
X61101904Y-82810952D02*
X61006666Y-82763333D01*
X60959047Y-82715714D01*
X60911428Y-82620476D01*
X60911428Y-82572857D01*
X60959047Y-82477619D01*
X61006666Y-82430000D01*
X61101904Y-82382380D01*
X61292380Y-82382380D01*
X61387619Y-82430000D01*
X61435238Y-82477619D01*
X61482857Y-82572857D01*
X61482857Y-82620476D01*
X61435238Y-82715714D01*
X61387619Y-82763333D01*
X61292380Y-82810952D01*
X61101904Y-82810952D01*
X61006666Y-82858571D01*
X60959047Y-82906190D01*
X60911428Y-83001428D01*
X60911428Y-83191904D01*
X60959047Y-83287142D01*
X61006666Y-83334761D01*
X61101904Y-83382380D01*
X61292380Y-83382380D01*
X61387619Y-83334761D01*
X61435238Y-83287142D01*
X61482857Y-83191904D01*
X61482857Y-83001428D01*
X61435238Y-82906190D01*
X61387619Y-82858571D01*
X61292380Y-82810952D01*
%TO.C,J27*%
X239420476Y-82252380D02*
X239420476Y-82966666D01*
X239372857Y-83109523D01*
X239277619Y-83204761D01*
X239134761Y-83252380D01*
X239039523Y-83252380D01*
X239849047Y-82347619D02*
X239896666Y-82300000D01*
X239991904Y-82252380D01*
X240230000Y-82252380D01*
X240325238Y-82300000D01*
X240372857Y-82347619D01*
X240420476Y-82442857D01*
X240420476Y-82538095D01*
X240372857Y-82680952D01*
X239801428Y-83252380D01*
X240420476Y-83252380D01*
X240753809Y-82252380D02*
X241420476Y-82252380D01*
X240991904Y-83252380D01*
%TO.C,J26*%
X119490476Y-82362380D02*
X119490476Y-83076666D01*
X119442857Y-83219523D01*
X119347619Y-83314761D01*
X119204761Y-83362380D01*
X119109523Y-83362380D01*
X119919047Y-82457619D02*
X119966666Y-82410000D01*
X120061904Y-82362380D01*
X120300000Y-82362380D01*
X120395238Y-82410000D01*
X120442857Y-82457619D01*
X120490476Y-82552857D01*
X120490476Y-82648095D01*
X120442857Y-82790952D01*
X119871428Y-83362380D01*
X120490476Y-83362380D01*
X121347619Y-82362380D02*
X121157142Y-82362380D01*
X121061904Y-82410000D01*
X121014285Y-82457619D01*
X120919047Y-82600476D01*
X120871428Y-82790952D01*
X120871428Y-83171904D01*
X120919047Y-83267142D01*
X120966666Y-83314761D01*
X121061904Y-83362380D01*
X121252380Y-83362380D01*
X121347619Y-83314761D01*
X121395238Y-83267142D01*
X121442857Y-83171904D01*
X121442857Y-82933809D01*
X121395238Y-82838571D01*
X121347619Y-82790952D01*
X121252380Y-82743333D01*
X121061904Y-82743333D01*
X120966666Y-82790952D01*
X120919047Y-82838571D01*
X120871428Y-82933809D01*
%TO.C,J25*%
X179720476Y-82302380D02*
X179720476Y-83016666D01*
X179672857Y-83159523D01*
X179577619Y-83254761D01*
X179434761Y-83302380D01*
X179339523Y-83302380D01*
X180149047Y-82397619D02*
X180196666Y-82350000D01*
X180291904Y-82302380D01*
X180530000Y-82302380D01*
X180625238Y-82350000D01*
X180672857Y-82397619D01*
X180720476Y-82492857D01*
X180720476Y-82588095D01*
X180672857Y-82730952D01*
X180101428Y-83302380D01*
X180720476Y-83302380D01*
X181625238Y-82302380D02*
X181149047Y-82302380D01*
X181101428Y-82778571D01*
X181149047Y-82730952D01*
X181244285Y-82683333D01*
X181482380Y-82683333D01*
X181577619Y-82730952D01*
X181625238Y-82778571D01*
X181672857Y-82873809D01*
X181672857Y-83111904D01*
X181625238Y-83207142D01*
X181577619Y-83254761D01*
X181482380Y-83302380D01*
X181244285Y-83302380D01*
X181149047Y-83254761D01*
X181101428Y-83207142D01*
%TO.C,J24*%
X68250476Y-99402380D02*
X68250476Y-100116666D01*
X68202857Y-100259523D01*
X68107619Y-100354761D01*
X67964761Y-100402380D01*
X67869523Y-100402380D01*
X68679047Y-99497619D02*
X68726666Y-99450000D01*
X68821904Y-99402380D01*
X69060000Y-99402380D01*
X69155238Y-99450000D01*
X69202857Y-99497619D01*
X69250476Y-99592857D01*
X69250476Y-99688095D01*
X69202857Y-99830952D01*
X68631428Y-100402380D01*
X69250476Y-100402380D01*
X70107619Y-99735714D02*
X70107619Y-100402380D01*
X69869523Y-99354761D02*
X69631428Y-100069047D01*
X70250476Y-100069047D01*
%TO.C,J23*%
X128180476Y-99522380D02*
X128180476Y-100236666D01*
X128132857Y-100379523D01*
X128037619Y-100474761D01*
X127894761Y-100522380D01*
X127799523Y-100522380D01*
X128609047Y-99617619D02*
X128656666Y-99570000D01*
X128751904Y-99522380D01*
X128990000Y-99522380D01*
X129085238Y-99570000D01*
X129132857Y-99617619D01*
X129180476Y-99712857D01*
X129180476Y-99808095D01*
X129132857Y-99950952D01*
X128561428Y-100522380D01*
X129180476Y-100522380D01*
X129513809Y-99522380D02*
X130132857Y-99522380D01*
X129799523Y-99903333D01*
X129942380Y-99903333D01*
X130037619Y-99950952D01*
X130085238Y-99998571D01*
X130132857Y-100093809D01*
X130132857Y-100331904D01*
X130085238Y-100427142D01*
X130037619Y-100474761D01*
X129942380Y-100522380D01*
X129656666Y-100522380D01*
X129561428Y-100474761D01*
X129513809Y-100427142D01*
%TO.C,J22*%
X188090476Y-99382380D02*
X188090476Y-100096666D01*
X188042857Y-100239523D01*
X187947619Y-100334761D01*
X187804761Y-100382380D01*
X187709523Y-100382380D01*
X188519047Y-99477619D02*
X188566666Y-99430000D01*
X188661904Y-99382380D01*
X188900000Y-99382380D01*
X188995238Y-99430000D01*
X189042857Y-99477619D01*
X189090476Y-99572857D01*
X189090476Y-99668095D01*
X189042857Y-99810952D01*
X188471428Y-100382380D01*
X189090476Y-100382380D01*
X189471428Y-99477619D02*
X189519047Y-99430000D01*
X189614285Y-99382380D01*
X189852380Y-99382380D01*
X189947619Y-99430000D01*
X189995238Y-99477619D01*
X190042857Y-99572857D01*
X190042857Y-99668095D01*
X189995238Y-99810952D01*
X189423809Y-100382380D01*
X190042857Y-100382380D01*
%TO.C,J21*%
X248080476Y-99612380D02*
X248080476Y-100326666D01*
X248032857Y-100469523D01*
X247937619Y-100564761D01*
X247794761Y-100612380D01*
X247699523Y-100612380D01*
X248509047Y-99707619D02*
X248556666Y-99660000D01*
X248651904Y-99612380D01*
X248890000Y-99612380D01*
X248985238Y-99660000D01*
X249032857Y-99707619D01*
X249080476Y-99802857D01*
X249080476Y-99898095D01*
X249032857Y-100040952D01*
X248461428Y-100612380D01*
X249080476Y-100612380D01*
X250032857Y-100612380D02*
X249461428Y-100612380D01*
X249747142Y-100612380D02*
X249747142Y-99612380D01*
X249651904Y-99755238D01*
X249556666Y-99850476D01*
X249461428Y-99898095D01*
%TO.C,J20*%
X68070476Y-105572380D02*
X68070476Y-106286666D01*
X68022857Y-106429523D01*
X67927619Y-106524761D01*
X67784761Y-106572380D01*
X67689523Y-106572380D01*
X68499047Y-105667619D02*
X68546666Y-105620000D01*
X68641904Y-105572380D01*
X68880000Y-105572380D01*
X68975238Y-105620000D01*
X69022857Y-105667619D01*
X69070476Y-105762857D01*
X69070476Y-105858095D01*
X69022857Y-106000952D01*
X68451428Y-106572380D01*
X69070476Y-106572380D01*
X69689523Y-105572380D02*
X69784761Y-105572380D01*
X69880000Y-105620000D01*
X69927619Y-105667619D01*
X69975238Y-105762857D01*
X70022857Y-105953333D01*
X70022857Y-106191428D01*
X69975238Y-106381904D01*
X69927619Y-106477142D01*
X69880000Y-106524761D01*
X69784761Y-106572380D01*
X69689523Y-106572380D01*
X69594285Y-106524761D01*
X69546666Y-106477142D01*
X69499047Y-106381904D01*
X69451428Y-106191428D01*
X69451428Y-105953333D01*
X69499047Y-105762857D01*
X69546666Y-105667619D01*
X69594285Y-105620000D01*
X69689523Y-105572380D01*
%TO.C,J19*%
X127950476Y-105512380D02*
X127950476Y-106226666D01*
X127902857Y-106369523D01*
X127807619Y-106464761D01*
X127664761Y-106512380D01*
X127569523Y-106512380D01*
X128950476Y-106512380D02*
X128379047Y-106512380D01*
X128664761Y-106512380D02*
X128664761Y-105512380D01*
X128569523Y-105655238D01*
X128474285Y-105750476D01*
X128379047Y-105798095D01*
X129426666Y-106512380D02*
X129617142Y-106512380D01*
X129712380Y-106464761D01*
X129760000Y-106417142D01*
X129855238Y-106274285D01*
X129902857Y-106083809D01*
X129902857Y-105702857D01*
X129855238Y-105607619D01*
X129807619Y-105560000D01*
X129712380Y-105512380D01*
X129521904Y-105512380D01*
X129426666Y-105560000D01*
X129379047Y-105607619D01*
X129331428Y-105702857D01*
X129331428Y-105940952D01*
X129379047Y-106036190D01*
X129426666Y-106083809D01*
X129521904Y-106131428D01*
X129712380Y-106131428D01*
X129807619Y-106083809D01*
X129855238Y-106036190D01*
X129902857Y-105940952D01*
%TO.C,J18*%
X188090476Y-105432380D02*
X188090476Y-106146666D01*
X188042857Y-106289523D01*
X187947619Y-106384761D01*
X187804761Y-106432380D01*
X187709523Y-106432380D01*
X189090476Y-106432380D02*
X188519047Y-106432380D01*
X188804761Y-106432380D02*
X188804761Y-105432380D01*
X188709523Y-105575238D01*
X188614285Y-105670476D01*
X188519047Y-105718095D01*
X189661904Y-105860952D02*
X189566666Y-105813333D01*
X189519047Y-105765714D01*
X189471428Y-105670476D01*
X189471428Y-105622857D01*
X189519047Y-105527619D01*
X189566666Y-105480000D01*
X189661904Y-105432380D01*
X189852380Y-105432380D01*
X189947619Y-105480000D01*
X189995238Y-105527619D01*
X190042857Y-105622857D01*
X190042857Y-105670476D01*
X189995238Y-105765714D01*
X189947619Y-105813333D01*
X189852380Y-105860952D01*
X189661904Y-105860952D01*
X189566666Y-105908571D01*
X189519047Y-105956190D01*
X189471428Y-106051428D01*
X189471428Y-106241904D01*
X189519047Y-106337142D01*
X189566666Y-106384761D01*
X189661904Y-106432380D01*
X189852380Y-106432380D01*
X189947619Y-106384761D01*
X189995238Y-106337142D01*
X190042857Y-106241904D01*
X190042857Y-106051428D01*
X189995238Y-105956190D01*
X189947619Y-105908571D01*
X189852380Y-105860952D01*
%TO.C,J17*%
X248080476Y-105492380D02*
X248080476Y-106206666D01*
X248032857Y-106349523D01*
X247937619Y-106444761D01*
X247794761Y-106492380D01*
X247699523Y-106492380D01*
X249080476Y-106492380D02*
X248509047Y-106492380D01*
X248794761Y-106492380D02*
X248794761Y-105492380D01*
X248699523Y-105635238D01*
X248604285Y-105730476D01*
X248509047Y-105778095D01*
X249413809Y-105492380D02*
X250080476Y-105492380D01*
X249651904Y-106492380D01*
%TO.C,J16*%
X32520476Y-91152380D02*
X32520476Y-91866666D01*
X32472857Y-92009523D01*
X32377619Y-92104761D01*
X32234761Y-92152380D01*
X32139523Y-92152380D01*
X33520476Y-92152380D02*
X32949047Y-92152380D01*
X33234761Y-92152380D02*
X33234761Y-91152380D01*
X33139523Y-91295238D01*
X33044285Y-91390476D01*
X32949047Y-91438095D01*
X34377619Y-91152380D02*
X34187142Y-91152380D01*
X34091904Y-91200000D01*
X34044285Y-91247619D01*
X33949047Y-91390476D01*
X33901428Y-91580952D01*
X33901428Y-91961904D01*
X33949047Y-92057142D01*
X33996666Y-92104761D01*
X34091904Y-92152380D01*
X34282380Y-92152380D01*
X34377619Y-92104761D01*
X34425238Y-92057142D01*
X34472857Y-91961904D01*
X34472857Y-91723809D01*
X34425238Y-91628571D01*
X34377619Y-91580952D01*
X34282380Y-91533333D01*
X34091904Y-91533333D01*
X33996666Y-91580952D01*
X33949047Y-91628571D01*
X33901428Y-91723809D01*
%TO.C,J15*%
X212470476Y-91272380D02*
X212470476Y-91986666D01*
X212422857Y-92129523D01*
X212327619Y-92224761D01*
X212184761Y-92272380D01*
X212089523Y-92272380D01*
X213470476Y-92272380D02*
X212899047Y-92272380D01*
X213184761Y-92272380D02*
X213184761Y-91272380D01*
X213089523Y-91415238D01*
X212994285Y-91510476D01*
X212899047Y-91558095D01*
X214375238Y-91272380D02*
X213899047Y-91272380D01*
X213851428Y-91748571D01*
X213899047Y-91700952D01*
X213994285Y-91653333D01*
X214232380Y-91653333D01*
X214327619Y-91700952D01*
X214375238Y-91748571D01*
X214422857Y-91843809D01*
X214422857Y-92081904D01*
X214375238Y-92177142D01*
X214327619Y-92224761D01*
X214232380Y-92272380D01*
X213994285Y-92272380D01*
X213899047Y-92224761D01*
X213851428Y-92177142D01*
%TO.C,J14*%
X92520476Y-91122380D02*
X92520476Y-91836666D01*
X92472857Y-91979523D01*
X92377619Y-92074761D01*
X92234761Y-92122380D01*
X92139523Y-92122380D01*
X93520476Y-92122380D02*
X92949047Y-92122380D01*
X93234761Y-92122380D02*
X93234761Y-91122380D01*
X93139523Y-91265238D01*
X93044285Y-91360476D01*
X92949047Y-91408095D01*
X94377619Y-91455714D02*
X94377619Y-92122380D01*
X94139523Y-91074761D02*
X93901428Y-91789047D01*
X94520476Y-91789047D01*
%TO.C,J13*%
X152630476Y-91182380D02*
X152630476Y-91896666D01*
X152582857Y-92039523D01*
X152487619Y-92134761D01*
X152344761Y-92182380D01*
X152249523Y-92182380D01*
X153630476Y-92182380D02*
X153059047Y-92182380D01*
X153344761Y-92182380D02*
X153344761Y-91182380D01*
X153249523Y-91325238D01*
X153154285Y-91420476D01*
X153059047Y-91468095D01*
X153963809Y-91182380D02*
X154582857Y-91182380D01*
X154249523Y-91563333D01*
X154392380Y-91563333D01*
X154487619Y-91610952D01*
X154535238Y-91658571D01*
X154582857Y-91753809D01*
X154582857Y-91991904D01*
X154535238Y-92087142D01*
X154487619Y-92134761D01*
X154392380Y-92182380D01*
X154106666Y-92182380D01*
X154011428Y-92134761D01*
X153963809Y-92087142D01*
%TO.C,J12*%
X59410476Y-93892380D02*
X59410476Y-94606666D01*
X59362857Y-94749523D01*
X59267619Y-94844761D01*
X59124761Y-94892380D01*
X59029523Y-94892380D01*
X60410476Y-94892380D02*
X59839047Y-94892380D01*
X60124761Y-94892380D02*
X60124761Y-93892380D01*
X60029523Y-94035238D01*
X59934285Y-94130476D01*
X59839047Y-94178095D01*
X60791428Y-93987619D02*
X60839047Y-93940000D01*
X60934285Y-93892380D01*
X61172380Y-93892380D01*
X61267619Y-93940000D01*
X61315238Y-93987619D01*
X61362857Y-94082857D01*
X61362857Y-94178095D01*
X61315238Y-94320952D01*
X60743809Y-94892380D01*
X61362857Y-94892380D01*
%TO.C,J11*%
X239740476Y-93912380D02*
X239740476Y-94626666D01*
X239692857Y-94769523D01*
X239597619Y-94864761D01*
X239454761Y-94912380D01*
X239359523Y-94912380D01*
X240740476Y-94912380D02*
X240169047Y-94912380D01*
X240454761Y-94912380D02*
X240454761Y-93912380D01*
X240359523Y-94055238D01*
X240264285Y-94150476D01*
X240169047Y-94198095D01*
X241692857Y-94912380D02*
X241121428Y-94912380D01*
X241407142Y-94912380D02*
X241407142Y-93912380D01*
X241311904Y-94055238D01*
X241216666Y-94150476D01*
X241121428Y-94198095D01*
%TO.C,J10*%
X119430476Y-93942380D02*
X119430476Y-94656666D01*
X119382857Y-94799523D01*
X119287619Y-94894761D01*
X119144761Y-94942380D01*
X119049523Y-94942380D01*
X120430476Y-94942380D02*
X119859047Y-94942380D01*
X120144761Y-94942380D02*
X120144761Y-93942380D01*
X120049523Y-94085238D01*
X119954285Y-94180476D01*
X119859047Y-94228095D01*
X121049523Y-93942380D02*
X121144761Y-93942380D01*
X121240000Y-93990000D01*
X121287619Y-94037619D01*
X121335238Y-94132857D01*
X121382857Y-94323333D01*
X121382857Y-94561428D01*
X121335238Y-94751904D01*
X121287619Y-94847142D01*
X121240000Y-94894761D01*
X121144761Y-94942380D01*
X121049523Y-94942380D01*
X120954285Y-94894761D01*
X120906666Y-94847142D01*
X120859047Y-94751904D01*
X120811428Y-94561428D01*
X120811428Y-94323333D01*
X120859047Y-94132857D01*
X120906666Y-94037619D01*
X120954285Y-93990000D01*
X121049523Y-93942380D01*
%TO.C,J9*%
X179666666Y-94002380D02*
X179666666Y-94716666D01*
X179619047Y-94859523D01*
X179523809Y-94954761D01*
X179380952Y-95002380D01*
X179285714Y-95002380D01*
X180190476Y-95002380D02*
X180380952Y-95002380D01*
X180476190Y-94954761D01*
X180523809Y-94907142D01*
X180619047Y-94764285D01*
X180666666Y-94573809D01*
X180666666Y-94192857D01*
X180619047Y-94097619D01*
X180571428Y-94050000D01*
X180476190Y-94002380D01*
X180285714Y-94002380D01*
X180190476Y-94050000D01*
X180142857Y-94097619D01*
X180095238Y-94192857D01*
X180095238Y-94430952D01*
X180142857Y-94526190D01*
X180190476Y-94573809D01*
X180285714Y-94621428D01*
X180476190Y-94621428D01*
X180571428Y-94573809D01*
X180619047Y-94526190D01*
X180666666Y-94430952D01*
%TO.C,J8*%
X119436666Y-104222380D02*
X119436666Y-104936666D01*
X119389047Y-105079523D01*
X119293809Y-105174761D01*
X119150952Y-105222380D01*
X119055714Y-105222380D01*
X120055714Y-104650952D02*
X119960476Y-104603333D01*
X119912857Y-104555714D01*
X119865238Y-104460476D01*
X119865238Y-104412857D01*
X119912857Y-104317619D01*
X119960476Y-104270000D01*
X120055714Y-104222380D01*
X120246190Y-104222380D01*
X120341428Y-104270000D01*
X120389047Y-104317619D01*
X120436666Y-104412857D01*
X120436666Y-104460476D01*
X120389047Y-104555714D01*
X120341428Y-104603333D01*
X120246190Y-104650952D01*
X120055714Y-104650952D01*
X119960476Y-104698571D01*
X119912857Y-104746190D01*
X119865238Y-104841428D01*
X119865238Y-105031904D01*
X119912857Y-105127142D01*
X119960476Y-105174761D01*
X120055714Y-105222380D01*
X120246190Y-105222380D01*
X120341428Y-105174761D01*
X120389047Y-105127142D01*
X120436666Y-105031904D01*
X120436666Y-104841428D01*
X120389047Y-104746190D01*
X120341428Y-104698571D01*
X120246190Y-104650952D01*
%TO.C,J7*%
X179606666Y-104402380D02*
X179606666Y-105116666D01*
X179559047Y-105259523D01*
X179463809Y-105354761D01*
X179320952Y-105402380D01*
X179225714Y-105402380D01*
X179987619Y-104402380D02*
X180654285Y-104402380D01*
X180225714Y-105402380D01*
%TO.C,J6*%
X239626666Y-104312380D02*
X239626666Y-105026666D01*
X239579047Y-105169523D01*
X239483809Y-105264761D01*
X239340952Y-105312380D01*
X239245714Y-105312380D01*
X240531428Y-104312380D02*
X240340952Y-104312380D01*
X240245714Y-104360000D01*
X240198095Y-104407619D01*
X240102857Y-104550476D01*
X240055238Y-104740952D01*
X240055238Y-105121904D01*
X240102857Y-105217142D01*
X240150476Y-105264761D01*
X240245714Y-105312380D01*
X240436190Y-105312380D01*
X240531428Y-105264761D01*
X240579047Y-105217142D01*
X240626666Y-105121904D01*
X240626666Y-104883809D01*
X240579047Y-104788571D01*
X240531428Y-104740952D01*
X240436190Y-104693333D01*
X240245714Y-104693333D01*
X240150476Y-104740952D01*
X240102857Y-104788571D01*
X240055238Y-104883809D01*
%TO.C,J5*%
X59766666Y-104252380D02*
X59766666Y-104966666D01*
X59719047Y-105109523D01*
X59623809Y-105204761D01*
X59480952Y-105252380D01*
X59385714Y-105252380D01*
X60719047Y-104252380D02*
X60242857Y-104252380D01*
X60195238Y-104728571D01*
X60242857Y-104680952D01*
X60338095Y-104633333D01*
X60576190Y-104633333D01*
X60671428Y-104680952D01*
X60719047Y-104728571D01*
X60766666Y-104823809D01*
X60766666Y-105061904D01*
X60719047Y-105157142D01*
X60671428Y-105204761D01*
X60576190Y-105252380D01*
X60338095Y-105252380D01*
X60242857Y-105204761D01*
X60195238Y-105157142D01*
%TO.C,J4*%
X92466666Y-107162380D02*
X92466666Y-107876666D01*
X92419047Y-108019523D01*
X92323809Y-108114761D01*
X92180952Y-108162380D01*
X92085714Y-108162380D01*
X93371428Y-107495714D02*
X93371428Y-108162380D01*
X93133333Y-107114761D02*
X92895238Y-107829047D01*
X93514285Y-107829047D01*
%TO.C,J3*%
X152516666Y-107222380D02*
X152516666Y-107936666D01*
X152469047Y-108079523D01*
X152373809Y-108174761D01*
X152230952Y-108222380D01*
X152135714Y-108222380D01*
X152897619Y-107222380D02*
X153516666Y-107222380D01*
X153183333Y-107603333D01*
X153326190Y-107603333D01*
X153421428Y-107650952D01*
X153469047Y-107698571D01*
X153516666Y-107793809D01*
X153516666Y-108031904D01*
X153469047Y-108127142D01*
X153421428Y-108174761D01*
X153326190Y-108222380D01*
X153040476Y-108222380D01*
X152945238Y-108174761D01*
X152897619Y-108127142D01*
%TO.C,J2*%
X212596666Y-107132380D02*
X212596666Y-107846666D01*
X212549047Y-107989523D01*
X212453809Y-108084761D01*
X212310952Y-108132380D01*
X212215714Y-108132380D01*
X213025238Y-107227619D02*
X213072857Y-107180000D01*
X213168095Y-107132380D01*
X213406190Y-107132380D01*
X213501428Y-107180000D01*
X213549047Y-107227619D01*
X213596666Y-107322857D01*
X213596666Y-107418095D01*
X213549047Y-107560952D01*
X212977619Y-108132380D01*
X213596666Y-108132380D01*
%TO.C,J1*%
X32546666Y-107192380D02*
X32546666Y-107906666D01*
X32499047Y-108049523D01*
X32403809Y-108144761D01*
X32260952Y-108192380D01*
X32165714Y-108192380D01*
X33546666Y-108192380D02*
X32975238Y-108192380D01*
X33260952Y-108192380D02*
X33260952Y-107192380D01*
X33165714Y-107335238D01*
X33070476Y-107430476D01*
X32975238Y-107478095D01*
D11*
%TO.C,J28*%
X57460000Y-81820000D02*
X58790000Y-81820000D01*
X56190000Y-81820000D02*
X35810000Y-81820000D01*
X56190000Y-84480000D02*
X35810000Y-84480000D01*
X56190000Y-81820000D02*
X56190000Y-84480000D01*
X35810000Y-81820000D02*
X35810000Y-84480000D01*
X58790000Y-81820000D02*
X58790000Y-83150000D01*
%TO.C,J27*%
X238820000Y-81810000D02*
X238820000Y-83140000D01*
X215840000Y-81810000D02*
X215840000Y-84470000D01*
X236220000Y-81810000D02*
X236220000Y-84470000D01*
X236220000Y-84470000D02*
X215840000Y-84470000D01*
X236220000Y-81810000D02*
X215840000Y-81810000D01*
X237490000Y-81810000D02*
X238820000Y-81810000D01*
%TO.C,J26*%
X117500000Y-81820000D02*
X118830000Y-81820000D01*
X116230000Y-81820000D02*
X95850000Y-81820000D01*
X116230000Y-84480000D02*
X95850000Y-84480000D01*
X116230000Y-81820000D02*
X116230000Y-84480000D01*
X95850000Y-81820000D02*
X95850000Y-84480000D01*
X118830000Y-81820000D02*
X118830000Y-83150000D01*
%TO.C,J25*%
X177500000Y-81820000D02*
X178830000Y-81820000D01*
X176230000Y-81820000D02*
X155850000Y-81820000D01*
X176230000Y-84480000D02*
X155850000Y-84480000D01*
X176230000Y-81820000D02*
X176230000Y-84480000D01*
X155850000Y-81820000D02*
X155850000Y-84480000D01*
X178830000Y-81820000D02*
X178830000Y-83150000D01*
D12*
%TO.C,J24*%
X89150000Y-98300000D02*
X90150000Y-98300000D01*
X80500000Y-100900000D02*
X75300000Y-100900000D01*
X86150000Y-100900000D02*
X88300000Y-100900000D01*
X66650000Y-98300000D02*
X65650000Y-98300000D01*
X88300000Y-73800000D02*
X67500000Y-73800000D01*
X67500000Y-73800000D02*
X67500000Y-87450000D01*
X67500000Y-90200000D02*
X67500000Y-100900000D01*
X88300000Y-100900000D02*
X88300000Y-90200000D01*
X88300000Y-87450000D02*
X88300000Y-73800000D01*
D11*
X88314000Y-84990000D02*
X67486000Y-84990000D01*
D12*
X67500000Y-100900000D02*
X69650000Y-100900000D01*
X89650000Y-97800000D02*
X89650000Y-98800000D01*
%TO.C,J23*%
X149690000Y-97820000D02*
X149690000Y-98820000D01*
X127540000Y-100920000D02*
X129690000Y-100920000D01*
D11*
X148354000Y-85010000D02*
X127526000Y-85010000D01*
D12*
X148340000Y-87470000D02*
X148340000Y-73820000D01*
X148340000Y-100920000D02*
X148340000Y-90220000D01*
X127540000Y-90220000D02*
X127540000Y-100920000D01*
X127540000Y-73820000D02*
X127540000Y-87470000D01*
X148340000Y-73820000D02*
X127540000Y-73820000D01*
X126690000Y-98320000D02*
X125690000Y-98320000D01*
X146190000Y-100920000D02*
X148340000Y-100920000D01*
X140540000Y-100920000D02*
X135340000Y-100920000D01*
X149190000Y-98320000D02*
X150190000Y-98320000D01*
%TO.C,J22*%
X209680000Y-97830000D02*
X209680000Y-98830000D01*
X187530000Y-100930000D02*
X189680000Y-100930000D01*
D11*
X208344000Y-85020000D02*
X187516000Y-85020000D01*
D12*
X208330000Y-87480000D02*
X208330000Y-73830000D01*
X208330000Y-100930000D02*
X208330000Y-90230000D01*
X187530000Y-90230000D02*
X187530000Y-100930000D01*
X187530000Y-73830000D02*
X187530000Y-87480000D01*
X208330000Y-73830000D02*
X187530000Y-73830000D01*
X186680000Y-98330000D02*
X185680000Y-98330000D01*
X206180000Y-100930000D02*
X208330000Y-100930000D01*
X200530000Y-100930000D02*
X195330000Y-100930000D01*
X209180000Y-98330000D02*
X210180000Y-98330000D01*
%TO.C,J21*%
X269700000Y-97820000D02*
X269700000Y-98820000D01*
X247550000Y-100920000D02*
X249700000Y-100920000D01*
D11*
X268364000Y-85010000D02*
X247536000Y-85010000D01*
D12*
X268350000Y-87470000D02*
X268350000Y-73820000D01*
X268350000Y-100920000D02*
X268350000Y-90220000D01*
X247550000Y-90220000D02*
X247550000Y-100920000D01*
X247550000Y-73820000D02*
X247550000Y-87470000D01*
X268350000Y-73820000D02*
X247550000Y-73820000D01*
X246700000Y-98320000D02*
X245700000Y-98320000D01*
X266200000Y-100920000D02*
X268350000Y-100920000D01*
X260550000Y-100920000D02*
X255350000Y-100920000D01*
X269200000Y-98320000D02*
X270200000Y-98320000D01*
%TO.C,J20*%
X86078000Y-104980000D02*
X88250000Y-104980000D01*
X67450000Y-104980000D02*
X67450000Y-114960000D01*
D11*
X88250000Y-130380000D02*
X88264000Y-119374000D01*
X88264000Y-119374000D02*
X67436000Y-119374000D01*
D12*
X88250000Y-114960000D02*
X88250000Y-130380000D01*
X89600000Y-108330000D02*
X89600000Y-107330000D01*
X66600000Y-107830000D02*
X65600000Y-107830000D01*
X89100000Y-107830000D02*
X90100000Y-107830000D01*
X88250000Y-130380000D02*
X67450000Y-130380000D01*
X67450000Y-130380000D02*
X67450000Y-114960000D01*
X67450000Y-104980000D02*
X69622000Y-104980000D01*
X88250000Y-104980000D02*
X88250000Y-114960000D01*
X80522000Y-104980000D02*
X75178000Y-104980000D01*
%TO.C,J19*%
X146048000Y-104980000D02*
X148220000Y-104980000D01*
X127420000Y-104980000D02*
X127420000Y-114960000D01*
D11*
X148220000Y-130380000D02*
X148234000Y-119374000D01*
X148234000Y-119374000D02*
X127406000Y-119374000D01*
D12*
X148220000Y-114960000D02*
X148220000Y-130380000D01*
X149570000Y-108330000D02*
X149570000Y-107330000D01*
X126570000Y-107830000D02*
X125570000Y-107830000D01*
X149070000Y-107830000D02*
X150070000Y-107830000D01*
X148220000Y-130380000D02*
X127420000Y-130380000D01*
X127420000Y-130380000D02*
X127420000Y-114960000D01*
X127420000Y-104980000D02*
X129592000Y-104980000D01*
X148220000Y-104980000D02*
X148220000Y-114960000D01*
X140492000Y-104980000D02*
X135148000Y-104980000D01*
%TO.C,J18*%
X206088000Y-104990000D02*
X208260000Y-104990000D01*
X187460000Y-104990000D02*
X187460000Y-114970000D01*
D11*
X208260000Y-130390000D02*
X208274000Y-119384000D01*
X208274000Y-119384000D02*
X187446000Y-119384000D01*
D12*
X208260000Y-114970000D02*
X208260000Y-130390000D01*
X209610000Y-108340000D02*
X209610000Y-107340000D01*
X186610000Y-107840000D02*
X185610000Y-107840000D01*
X209110000Y-107840000D02*
X210110000Y-107840000D01*
X208260000Y-130390000D02*
X187460000Y-130390000D01*
X187460000Y-130390000D02*
X187460000Y-114970000D01*
X187460000Y-104990000D02*
X189632000Y-104990000D01*
X208260000Y-104990000D02*
X208260000Y-114970000D01*
X200532000Y-104990000D02*
X195188000Y-104990000D01*
%TO.C,J17*%
X266088000Y-104980000D02*
X268260000Y-104980000D01*
X247460000Y-104980000D02*
X247460000Y-114960000D01*
D11*
X268260000Y-130380000D02*
X268274000Y-119374000D01*
X268274000Y-119374000D02*
X247446000Y-119374000D01*
D12*
X268260000Y-114960000D02*
X268260000Y-130380000D01*
X269610000Y-108330000D02*
X269610000Y-107330000D01*
X246610000Y-107830000D02*
X245610000Y-107830000D01*
X269110000Y-107830000D02*
X270110000Y-107830000D01*
X268260000Y-130380000D02*
X247460000Y-130380000D01*
X247460000Y-130380000D02*
X247460000Y-114960000D01*
X247460000Y-104980000D02*
X249632000Y-104980000D01*
X268260000Y-104980000D02*
X268260000Y-114960000D01*
X260532000Y-104980000D02*
X255188000Y-104980000D01*
%TO.C,J16*%
X31900000Y-79940000D02*
X31900000Y-92440000D01*
X31900000Y-92440000D02*
X62710000Y-92440000D01*
X62710000Y-92440000D02*
X62710000Y-79940000D01*
X62710000Y-79940000D02*
X31900000Y-79940000D01*
D13*
X41485000Y-93640000D02*
G75*
G03*
X41485000Y-93640000I-100000J0D01*
G01*
%TO.C,J15*%
X221520000Y-93640000D02*
G75*
G03*
X221520000Y-93640000I-100000J0D01*
G01*
D12*
X242745000Y-79940000D02*
X211935000Y-79940000D01*
X242745000Y-92440000D02*
X242745000Y-79940000D01*
X211935000Y-92440000D02*
X242745000Y-92440000D01*
X211935000Y-79940000D02*
X211935000Y-92440000D01*
D13*
%TO.C,J14*%
X101520000Y-93650000D02*
G75*
G03*
X101520000Y-93650000I-100000J0D01*
G01*
D12*
X122745000Y-79950000D02*
X91935000Y-79950000D01*
X122745000Y-92450000D02*
X122745000Y-79950000D01*
X91935000Y-92450000D02*
X122745000Y-92450000D01*
X91935000Y-79950000D02*
X91935000Y-92450000D01*
D13*
%TO.C,J13*%
X161520000Y-93650000D02*
G75*
G03*
X161520000Y-93650000I-100000J0D01*
G01*
D12*
X182745000Y-79950000D02*
X151935000Y-79950000D01*
X182745000Y-92450000D02*
X182745000Y-79950000D01*
X151935000Y-92450000D02*
X182745000Y-92450000D01*
X151935000Y-79950000D02*
X151935000Y-92450000D01*
D11*
%TO.C,J12*%
X58790000Y-93210000D02*
X58790000Y-94540000D01*
X35810000Y-93210000D02*
X35810000Y-95870000D01*
X56190000Y-93210000D02*
X56190000Y-95870000D01*
X56190000Y-95870000D02*
X35810000Y-95870000D01*
X56190000Y-93210000D02*
X35810000Y-93210000D01*
X57460000Y-93210000D02*
X58790000Y-93210000D01*
%TO.C,J11*%
X237500000Y-93220000D02*
X238830000Y-93220000D01*
X236230000Y-93220000D02*
X215850000Y-93220000D01*
X236230000Y-95880000D02*
X215850000Y-95880000D01*
X236230000Y-93220000D02*
X236230000Y-95880000D01*
X215850000Y-93220000D02*
X215850000Y-95880000D01*
X238830000Y-93220000D02*
X238830000Y-94550000D01*
%TO.C,J10*%
X118830000Y-93230000D02*
X118830000Y-94560000D01*
X95850000Y-93230000D02*
X95850000Y-95890000D01*
X116230000Y-93230000D02*
X116230000Y-95890000D01*
X116230000Y-95890000D02*
X95850000Y-95890000D01*
X116230000Y-93230000D02*
X95850000Y-93230000D01*
X117500000Y-93230000D02*
X118830000Y-93230000D01*
%TO.C,J9*%
X178830000Y-93220000D02*
X178830000Y-94550000D01*
X155850000Y-93220000D02*
X155850000Y-95880000D01*
X176230000Y-93220000D02*
X176230000Y-95880000D01*
X176230000Y-95880000D02*
X155850000Y-95880000D01*
X176230000Y-93220000D02*
X155850000Y-93220000D01*
X177500000Y-93220000D02*
X178830000Y-93220000D01*
%TO.C,J8*%
X95800000Y-106050000D02*
X95800000Y-104720000D01*
X118780000Y-106050000D02*
X118780000Y-103390000D01*
X98400000Y-106050000D02*
X98400000Y-103390000D01*
X98400000Y-103390000D02*
X118780000Y-103390000D01*
X98400000Y-106050000D02*
X118780000Y-106050000D01*
X97130000Y-106050000D02*
X95800000Y-106050000D01*
%TO.C,J7*%
X155800000Y-106040000D02*
X155800000Y-104710000D01*
X178780000Y-106040000D02*
X178780000Y-103380000D01*
X158400000Y-106040000D02*
X158400000Y-103380000D01*
X158400000Y-103380000D02*
X178780000Y-103380000D01*
X158400000Y-106040000D02*
X178780000Y-106040000D01*
X157130000Y-106040000D02*
X155800000Y-106040000D01*
%TO.C,J6*%
X215800000Y-106050000D02*
X215800000Y-104720000D01*
X238780000Y-106050000D02*
X238780000Y-103390000D01*
X218400000Y-106050000D02*
X218400000Y-103390000D01*
X218400000Y-103390000D02*
X238780000Y-103390000D01*
X218400000Y-106050000D02*
X238780000Y-106050000D01*
X217130000Y-106050000D02*
X215800000Y-106050000D01*
%TO.C,J5*%
X35800000Y-106070000D02*
X35800000Y-104740000D01*
X58780000Y-106070000D02*
X58780000Y-103410000D01*
X38400000Y-106070000D02*
X38400000Y-103410000D01*
X38400000Y-103410000D02*
X58780000Y-103410000D01*
X38400000Y-106070000D02*
X58780000Y-106070000D01*
X37130000Y-106070000D02*
X35800000Y-106070000D01*
D13*
%TO.C,J4*%
X113320000Y-105600000D02*
G75*
G03*
X113320000Y-105600000I-100000J0D01*
G01*
D12*
X91895000Y-119300000D02*
X122705000Y-119300000D01*
X91895000Y-106800000D02*
X91895000Y-119300000D01*
X122705000Y-106800000D02*
X91895000Y-106800000D01*
X122705000Y-119300000D02*
X122705000Y-106800000D01*
%TO.C,J3*%
X182705000Y-119300000D02*
X182705000Y-106800000D01*
X182705000Y-106800000D02*
X151895000Y-106800000D01*
X151895000Y-106800000D02*
X151895000Y-119300000D01*
X151895000Y-119300000D02*
X182705000Y-119300000D01*
D13*
X173320000Y-105600000D02*
G75*
G03*
X173320000Y-105600000I-100000J0D01*
G01*
%TO.C,J2*%
X233320000Y-105600000D02*
G75*
G03*
X233320000Y-105600000I-100000J0D01*
G01*
D12*
X211895000Y-119300000D02*
X242705000Y-119300000D01*
X211895000Y-106800000D02*
X211895000Y-119300000D01*
X242705000Y-106800000D02*
X211895000Y-106800000D01*
X242705000Y-119300000D02*
X242705000Y-106800000D01*
D13*
%TO.C,J1*%
X53320000Y-105630000D02*
G75*
G03*
X53320000Y-105630000I-100000J0D01*
G01*
D12*
X31895000Y-119330000D02*
X62705000Y-119330000D01*
X31895000Y-106830000D02*
X31895000Y-119330000D01*
X62705000Y-106830000D02*
X31895000Y-106830000D01*
X62705000Y-119330000D02*
X62705000Y-106830000D01*
%TD*%
M02*
