%TF.GenerationSoftware,KiCad,Pcbnew,(6.0.7)*%
%TF.CreationDate,2024-02-08T01:47:39+01:00*%
%TF.ProjectId,RACK_CONNECTOR,5241434b-5f43-44f4-9e4e-4543544f522e,rev?*%
%TF.SameCoordinates,Original*%
%TF.FileFunction,Soldermask,Top*%
%TF.FilePolarity,Negative*%
%FSLAX46Y46*%
G04 Gerber Fmt 4.6, Leading zero omitted, Abs format (unit mm)*
G04 Created by KiCad (PCBNEW (6.0.7)) date 2024-02-08 01:47:39*
%MOMM*%
%LPD*%
G01*
G04 APERTURE LIST*
G04 Aperture macros list*
%AMRoundRect*
0 Rectangle with rounded corners*
0 $1 Rounding radius*
0 $2 $3 $4 $5 $6 $7 $8 $9 X,Y pos of 4 corners*
0 Add a 4 corners polygon primitive as box body*
4,1,4,$2,$3,$4,$5,$6,$7,$8,$9,$2,$3,0*
0 Add four circle primitives for the rounded corners*
1,1,$1+$1,$2,$3*
1,1,$1+$1,$4,$5*
1,1,$1+$1,$6,$7*
1,1,$1+$1,$8,$9*
0 Add four rect primitives between the rounded corners*
20,1,$1+$1,$2,$3,$4,$5,0*
20,1,$1+$1,$4,$5,$6,$7,0*
20,1,$1+$1,$6,$7,$8,$9,0*
20,1,$1+$1,$8,$9,$2,$3,0*%
G04 Aperture macros list end*
%ADD10RoundRect,0.102000X0.787500X0.787500X-0.787500X0.787500X-0.787500X-0.787500X0.787500X-0.787500X0*%
%ADD11C,1.779000*%
%ADD12C,4.320000*%
%ADD13C,5.120000*%
%ADD14RoundRect,0.102000X-2.458000X-2.458000X2.458000X-2.458000X2.458000X2.458000X-2.458000X2.458000X0*%
%ADD15O,1.504000X2.804000*%
%ADD16RoundRect,0.102000X-0.787500X-0.787500X0.787500X-0.787500X0.787500X0.787500X-0.787500X0.787500X0*%
%ADD17R,1.700000X1.700000*%
%ADD18O,1.700000X1.700000*%
%ADD19RoundRect,0.102000X2.458000X2.458000X-2.458000X2.458000X-2.458000X-2.458000X2.458000X-2.458000X0*%
G04 APERTURE END LIST*
D10*
%TO.C,J11*%
X93360000Y-55190000D03*
D11*
X96130000Y-55190000D03*
X98900000Y-55190000D03*
X101670000Y-55190000D03*
X104440000Y-55190000D03*
X94745000Y-52350000D03*
X97515000Y-52350000D03*
X100285000Y-52350000D03*
X103055000Y-52350000D03*
D12*
X111395000Y-53770000D03*
X86405000Y-53770000D03*
%TD*%
D10*
%TO.C,J9*%
X213350000Y-55200000D03*
D11*
X216120000Y-55200000D03*
X218890000Y-55200000D03*
X221660000Y-55200000D03*
X224430000Y-55200000D03*
X214735000Y-52360000D03*
X217505000Y-52360000D03*
X220275000Y-52360000D03*
X223045000Y-52360000D03*
D12*
X231385000Y-53780000D03*
X206395000Y-53780000D03*
%TD*%
D13*
%TO.C,J14*%
X243940000Y-72000000D03*
D14*
X254840000Y-72000000D03*
D15*
X258840000Y-80900000D03*
X239940000Y-80900000D03*
%TD*%
D13*
%TO.C,J15*%
X123930000Y-72000000D03*
D14*
X134830000Y-72000000D03*
D15*
X138830000Y-80900000D03*
X119930000Y-80900000D03*
%TD*%
D16*
%TO.C,J19*%
X104385000Y-72710000D03*
D11*
X101615000Y-72710000D03*
X98845000Y-72710000D03*
X96075000Y-72710000D03*
X93305000Y-72710000D03*
X103000000Y-75550000D03*
X100230000Y-75550000D03*
X97460000Y-75550000D03*
X94690000Y-75550000D03*
D12*
X86350000Y-74130000D03*
X111340000Y-74130000D03*
%TD*%
D17*
%TO.C,J6*%
X166410000Y-46230000D03*
D18*
X163870000Y-46230000D03*
X161330000Y-46230000D03*
X158790000Y-46230000D03*
X156250000Y-46230000D03*
X153710000Y-46230000D03*
X151170000Y-46230000D03*
%TD*%
D13*
%TO.C,J16*%
X63940000Y-71990000D03*
D14*
X74840000Y-71990000D03*
D15*
X78840000Y-80890000D03*
X59940000Y-80890000D03*
%TD*%
D13*
%TO.C,J4*%
X64040000Y-62540000D03*
D19*
X74940000Y-62540000D03*
D15*
X78940000Y-53140000D03*
X60040000Y-53140000D03*
%TD*%
D16*
%TO.C,J20*%
X44395000Y-72740000D03*
D11*
X41625000Y-72740000D03*
X38855000Y-72740000D03*
X36085000Y-72740000D03*
X33315000Y-72740000D03*
X43010000Y-75580000D03*
X40240000Y-75580000D03*
X37470000Y-75580000D03*
X34700000Y-75580000D03*
D12*
X26360000Y-74160000D03*
X51350000Y-74160000D03*
%TD*%
D16*
%TO.C,J18*%
X164395000Y-72700000D03*
D11*
X161625000Y-72700000D03*
X158855000Y-72700000D03*
X156085000Y-72700000D03*
X153315000Y-72700000D03*
X163010000Y-75540000D03*
X160240000Y-75540000D03*
X157470000Y-75540000D03*
X154700000Y-75540000D03*
D12*
X146360000Y-74120000D03*
X171350000Y-74120000D03*
%TD*%
D17*
%TO.C,J7*%
X106390000Y-46225000D03*
D18*
X103850000Y-46225000D03*
X101310000Y-46225000D03*
X98770000Y-46225000D03*
X96230000Y-46225000D03*
X93690000Y-46225000D03*
X91150000Y-46225000D03*
%TD*%
D16*
%TO.C,J17*%
X224385000Y-72710000D03*
D11*
X221615000Y-72710000D03*
X218845000Y-72710000D03*
X216075000Y-72710000D03*
X213305000Y-72710000D03*
X223000000Y-75550000D03*
X220230000Y-75550000D03*
X217460000Y-75550000D03*
X214690000Y-75550000D03*
D12*
X206350000Y-74130000D03*
X231340000Y-74130000D03*
%TD*%
D13*
%TO.C,J1*%
X184040000Y-62540000D03*
D19*
X194940000Y-62540000D03*
D15*
X198940000Y-53140000D03*
X180040000Y-53140000D03*
%TD*%
D13*
%TO.C,J3*%
X124040000Y-62540000D03*
D19*
X134940000Y-62540000D03*
D15*
X138940000Y-53140000D03*
X120040000Y-53140000D03*
%TD*%
D10*
%TO.C,J10*%
X153350000Y-55190000D03*
D11*
X156120000Y-55190000D03*
X158890000Y-55190000D03*
X161660000Y-55190000D03*
X164430000Y-55190000D03*
X154735000Y-52350000D03*
X157505000Y-52350000D03*
X160275000Y-52350000D03*
X163045000Y-52350000D03*
D12*
X171385000Y-53770000D03*
X146395000Y-53770000D03*
%TD*%
D10*
%TO.C,J12*%
X33340000Y-55160000D03*
D11*
X36110000Y-55160000D03*
X38880000Y-55160000D03*
X41650000Y-55160000D03*
X44420000Y-55160000D03*
X34725000Y-52320000D03*
X37495000Y-52320000D03*
X40265000Y-52320000D03*
X43035000Y-52320000D03*
D12*
X51375000Y-53740000D03*
X26385000Y-53740000D03*
%TD*%
D13*
%TO.C,J2*%
X244050000Y-62530000D03*
D19*
X254950000Y-62530000D03*
D15*
X258950000Y-53130000D03*
X240050000Y-53130000D03*
%TD*%
D17*
%TO.C,J8*%
X46410000Y-46220000D03*
D18*
X43870000Y-46220000D03*
X41330000Y-46220000D03*
X38790000Y-46220000D03*
X36250000Y-46220000D03*
X33710000Y-46220000D03*
X31170000Y-46220000D03*
%TD*%
D17*
%TO.C,J5*%
X226400000Y-46230000D03*
D18*
X223860000Y-46230000D03*
X221320000Y-46230000D03*
X218780000Y-46230000D03*
X216240000Y-46230000D03*
X213700000Y-46230000D03*
X211160000Y-46230000D03*
%TD*%
D13*
%TO.C,J13*%
X183930000Y-72000000D03*
D14*
X194830000Y-72000000D03*
D15*
X198830000Y-80900000D03*
X179930000Y-80900000D03*
%TD*%
M02*
