%TF.GenerationSoftware,KiCad,Pcbnew,(6.0.7)*%
%TF.CreationDate,2024-02-08T01:47:38+01:00*%
%TF.ProjectId,RACK_CONNECTOR,5241434b-5f43-44f4-9e4e-4543544f522e,rev?*%
%TF.SameCoordinates,Original*%
%TF.FileFunction,Copper,L1,Top*%
%TF.FilePolarity,Positive*%
%FSLAX46Y46*%
G04 Gerber Fmt 4.6, Leading zero omitted, Abs format (unit mm)*
G04 Created by KiCad (PCBNEW (6.0.7)) date 2024-02-08 01:47:38*
%MOMM*%
%LPD*%
G01*
G04 APERTURE LIST*
%TA.AperFunction,ComponentPad*%
%ADD10R,1.575000X1.575000*%
%TD*%
%TA.AperFunction,ComponentPad*%
%ADD11C,1.575000*%
%TD*%
%TA.AperFunction,ComponentPad*%
%ADD12C,4.116000*%
%TD*%
%TA.AperFunction,ComponentPad*%
%ADD13C,4.916000*%
%TD*%
%TA.AperFunction,ComponentPad*%
%ADD14R,4.916000X4.916000*%
%TD*%
%TA.AperFunction,ComponentPad*%
%ADD15O,1.300000X2.600000*%
%TD*%
%TA.AperFunction,ComponentPad*%
%ADD16R,1.700000X1.700000*%
%TD*%
%TA.AperFunction,ComponentPad*%
%ADD17O,1.700000X1.700000*%
%TD*%
%TA.AperFunction,Conductor*%
%ADD18C,5.000000*%
%TD*%
G04 APERTURE END LIST*
D10*
%TO.P,J11,1,1*%
%TO.N,C1*%
X93360000Y-55190000D03*
D11*
%TO.P,J11,2,2*%
%TO.N,C2*%
X96130000Y-55190000D03*
%TO.P,J11,3,3*%
%TO.N,C3*%
X98900000Y-55190000D03*
%TO.P,J11,4,4*%
%TO.N,C4*%
X101670000Y-55190000D03*
%TO.P,J11,5,5*%
%TO.N,C5*%
X104440000Y-55190000D03*
%TO.P,J11,6,6*%
%TO.N,C6*%
X94745000Y-52350000D03*
%TO.P,J11,7,7*%
%TO.N,C7*%
X97515000Y-52350000D03*
%TO.P,J11,8,8*%
%TO.N,unconnected-(J11-Pad8)*%
X100285000Y-52350000D03*
%TO.P,J11,9,9*%
%TO.N,unconnected-(J11-Pad9)*%
X103055000Y-52350000D03*
D12*
%TO.P,J11,S1*%
%TO.N,N/C*%
X111395000Y-53770000D03*
%TO.P,J11,S2*%
X86405000Y-53770000D03*
%TD*%
D10*
%TO.P,J9,1,1*%
%TO.N,A1*%
X213350000Y-55200000D03*
D11*
%TO.P,J9,2,2*%
%TO.N,A2*%
X216120000Y-55200000D03*
%TO.P,J9,3,3*%
%TO.N,A3*%
X218890000Y-55200000D03*
%TO.P,J9,4,4*%
%TO.N,A4*%
X221660000Y-55200000D03*
%TO.P,J9,5,5*%
%TO.N,A5*%
X224430000Y-55200000D03*
%TO.P,J9,6,6*%
%TO.N,A6*%
X214735000Y-52360000D03*
%TO.P,J9,7,7*%
%TO.N,A7*%
X217505000Y-52360000D03*
%TO.P,J9,8,8*%
%TO.N,unconnected-(J9-Pad8)*%
X220275000Y-52360000D03*
%TO.P,J9,9,9*%
%TO.N,unconnected-(J9-Pad9)*%
X223045000Y-52360000D03*
D12*
%TO.P,J9,S1*%
%TO.N,N/C*%
X231385000Y-53780000D03*
%TO.P,J9,S2*%
X206395000Y-53780000D03*
%TD*%
D13*
%TO.P,J14,N,NEG*%
%TO.N,Net-(J14-PadN)*%
X243940000Y-72000000D03*
D14*
%TO.P,J14,P,POS*%
%TO.N,Net-(J14-PadP)*%
X254840000Y-72000000D03*
D15*
%TO.P,J14,S1*%
%TO.N,N/C*%
X258840000Y-80900000D03*
%TO.P,J14,S2*%
X239940000Y-80900000D03*
%TD*%
D13*
%TO.P,J15,N,NEG*%
%TO.N,Net-(J15-PadN)*%
X123930000Y-72000000D03*
D14*
%TO.P,J15,P,POS*%
%TO.N,Net-(J15-PadP)*%
X134830000Y-72000000D03*
D15*
%TO.P,J15,S1*%
%TO.N,N/C*%
X138830000Y-80900000D03*
%TO.P,J15,S2*%
X119930000Y-80900000D03*
%TD*%
D10*
%TO.P,J19,1,1*%
%TO.N,C1*%
X104385000Y-72710000D03*
D11*
%TO.P,J19,2,2*%
%TO.N,C2*%
X101615000Y-72710000D03*
%TO.P,J19,3,3*%
%TO.N,C3*%
X98845000Y-72710000D03*
%TO.P,J19,4,4*%
%TO.N,C4*%
X96075000Y-72710000D03*
%TO.P,J19,5,5*%
%TO.N,C5*%
X93305000Y-72710000D03*
%TO.P,J19,6,6*%
%TO.N,C6*%
X103000000Y-75550000D03*
%TO.P,J19,7,7*%
%TO.N,C7*%
X100230000Y-75550000D03*
%TO.P,J19,8,8*%
%TO.N,unconnected-(J19-Pad8)*%
X97460000Y-75550000D03*
%TO.P,J19,9,9*%
%TO.N,unconnected-(J19-Pad9)*%
X94690000Y-75550000D03*
D12*
%TO.P,J19,S1*%
%TO.N,N/C*%
X86350000Y-74130000D03*
%TO.P,J19,S2*%
X111340000Y-74130000D03*
%TD*%
D16*
%TO.P,J6,1,Pin_1*%
%TO.N,B1*%
X166410000Y-46230000D03*
D17*
%TO.P,J6,2,Pin_2*%
%TO.N,B2*%
X163870000Y-46230000D03*
%TO.P,J6,3,Pin_3*%
%TO.N,B3*%
X161330000Y-46230000D03*
%TO.P,J6,4,Pin_4*%
%TO.N,B4*%
X158790000Y-46230000D03*
%TO.P,J6,5,Pin_5*%
%TO.N,B5*%
X156250000Y-46230000D03*
%TO.P,J6,6,Pin_6*%
%TO.N,B6*%
X153710000Y-46230000D03*
%TO.P,J6,7,Pin_7*%
%TO.N,B7*%
X151170000Y-46230000D03*
%TD*%
D13*
%TO.P,J16,N,NEG*%
%TO.N,Net-(J16-PadN)*%
X63940000Y-71990000D03*
D14*
%TO.P,J16,P,POS*%
%TO.N,Net-(J16-PadP)*%
X74840000Y-71990000D03*
D15*
%TO.P,J16,S1*%
%TO.N,N/C*%
X78840000Y-80890000D03*
%TO.P,J16,S2*%
X59940000Y-80890000D03*
%TD*%
D13*
%TO.P,J4,N,NEG*%
%TO.N,Net-(J16-PadN)*%
X64040000Y-62540000D03*
D14*
%TO.P,J4,P,POS*%
%TO.N,Net-(J16-PadP)*%
X74940000Y-62540000D03*
D15*
%TO.P,J4,S1*%
%TO.N,N/C*%
X78940000Y-53140000D03*
%TO.P,J4,S2*%
X60040000Y-53140000D03*
%TD*%
D10*
%TO.P,J20,1,1*%
%TO.N,D1*%
X44395000Y-72740000D03*
D11*
%TO.P,J20,2,2*%
%TO.N,D2*%
X41625000Y-72740000D03*
%TO.P,J20,3,3*%
%TO.N,D3*%
X38855000Y-72740000D03*
%TO.P,J20,4,4*%
%TO.N,D4*%
X36085000Y-72740000D03*
%TO.P,J20,5,5*%
%TO.N,D5*%
X33315000Y-72740000D03*
%TO.P,J20,6,6*%
%TO.N,D6*%
X43010000Y-75580000D03*
%TO.P,J20,7,7*%
%TO.N,D7*%
X40240000Y-75580000D03*
%TO.P,J20,8,8*%
%TO.N,unconnected-(J20-Pad8)*%
X37470000Y-75580000D03*
%TO.P,J20,9,9*%
%TO.N,unconnected-(J20-Pad9)*%
X34700000Y-75580000D03*
D12*
%TO.P,J20,S1*%
%TO.N,N/C*%
X26360000Y-74160000D03*
%TO.P,J20,S2*%
X51350000Y-74160000D03*
%TD*%
D10*
%TO.P,J18,1,1*%
%TO.N,B1*%
X164395000Y-72700000D03*
D11*
%TO.P,J18,2,2*%
%TO.N,B2*%
X161625000Y-72700000D03*
%TO.P,J18,3,3*%
%TO.N,B3*%
X158855000Y-72700000D03*
%TO.P,J18,4,4*%
%TO.N,B4*%
X156085000Y-72700000D03*
%TO.P,J18,5,5*%
%TO.N,B5*%
X153315000Y-72700000D03*
%TO.P,J18,6,6*%
%TO.N,B6*%
X163010000Y-75540000D03*
%TO.P,J18,7,7*%
%TO.N,B7*%
X160240000Y-75540000D03*
%TO.P,J18,8,8*%
%TO.N,unconnected-(J18-Pad8)*%
X157470000Y-75540000D03*
%TO.P,J18,9,9*%
%TO.N,unconnected-(J18-Pad9)*%
X154700000Y-75540000D03*
D12*
%TO.P,J18,S1*%
%TO.N,N/C*%
X146360000Y-74120000D03*
%TO.P,J18,S2*%
X171350000Y-74120000D03*
%TD*%
D16*
%TO.P,J7,1,Pin_1*%
%TO.N,C1*%
X106390000Y-46225000D03*
D17*
%TO.P,J7,2,Pin_2*%
%TO.N,C2*%
X103850000Y-46225000D03*
%TO.P,J7,3,Pin_3*%
%TO.N,C3*%
X101310000Y-46225000D03*
%TO.P,J7,4,Pin_4*%
%TO.N,C4*%
X98770000Y-46225000D03*
%TO.P,J7,5,Pin_5*%
%TO.N,C5*%
X96230000Y-46225000D03*
%TO.P,J7,6,Pin_6*%
%TO.N,C6*%
X93690000Y-46225000D03*
%TO.P,J7,7,Pin_7*%
%TO.N,C7*%
X91150000Y-46225000D03*
%TD*%
D10*
%TO.P,J17,1,1*%
%TO.N,A1*%
X224385000Y-72710000D03*
D11*
%TO.P,J17,2,2*%
%TO.N,A2*%
X221615000Y-72710000D03*
%TO.P,J17,3,3*%
%TO.N,A3*%
X218845000Y-72710000D03*
%TO.P,J17,4,4*%
%TO.N,A4*%
X216075000Y-72710000D03*
%TO.P,J17,5,5*%
%TO.N,A5*%
X213305000Y-72710000D03*
%TO.P,J17,6,6*%
%TO.N,A6*%
X223000000Y-75550000D03*
%TO.P,J17,7,7*%
%TO.N,A7*%
X220230000Y-75550000D03*
%TO.P,J17,8,8*%
%TO.N,unconnected-(J17-Pad8)*%
X217460000Y-75550000D03*
%TO.P,J17,9,9*%
%TO.N,unconnected-(J17-Pad9)*%
X214690000Y-75550000D03*
D12*
%TO.P,J17,S1*%
%TO.N,N/C*%
X206350000Y-74130000D03*
%TO.P,J17,S2*%
X231340000Y-74130000D03*
%TD*%
D13*
%TO.P,J1,N,NEG*%
%TO.N,Net-(J1-PadN)*%
X184040000Y-62540000D03*
D14*
%TO.P,J1,P,POS*%
%TO.N,Net-(J1-PadP)*%
X194940000Y-62540000D03*
D15*
%TO.P,J1,S1*%
%TO.N,N/C*%
X198940000Y-53140000D03*
%TO.P,J1,S2*%
X180040000Y-53140000D03*
%TD*%
D13*
%TO.P,J3,N,NEG*%
%TO.N,Net-(J15-PadN)*%
X124040000Y-62540000D03*
D14*
%TO.P,J3,P,POS*%
%TO.N,Net-(J15-PadP)*%
X134940000Y-62540000D03*
D15*
%TO.P,J3,S1*%
%TO.N,N/C*%
X138940000Y-53140000D03*
%TO.P,J3,S2*%
X120040000Y-53140000D03*
%TD*%
D10*
%TO.P,J10,1,1*%
%TO.N,B1*%
X153350000Y-55190000D03*
D11*
%TO.P,J10,2,2*%
%TO.N,B2*%
X156120000Y-55190000D03*
%TO.P,J10,3,3*%
%TO.N,B3*%
X158890000Y-55190000D03*
%TO.P,J10,4,4*%
%TO.N,B4*%
X161660000Y-55190000D03*
%TO.P,J10,5,5*%
%TO.N,B5*%
X164430000Y-55190000D03*
%TO.P,J10,6,6*%
%TO.N,B6*%
X154735000Y-52350000D03*
%TO.P,J10,7,7*%
%TO.N,B7*%
X157505000Y-52350000D03*
%TO.P,J10,8,8*%
%TO.N,unconnected-(J10-Pad8)*%
X160275000Y-52350000D03*
%TO.P,J10,9,9*%
%TO.N,unconnected-(J10-Pad9)*%
X163045000Y-52350000D03*
D12*
%TO.P,J10,S1*%
%TO.N,N/C*%
X171385000Y-53770000D03*
%TO.P,J10,S2*%
X146395000Y-53770000D03*
%TD*%
D10*
%TO.P,J12,1,1*%
%TO.N,D1*%
X33340000Y-55160000D03*
D11*
%TO.P,J12,2,2*%
%TO.N,D2*%
X36110000Y-55160000D03*
%TO.P,J12,3,3*%
%TO.N,D3*%
X38880000Y-55160000D03*
%TO.P,J12,4,4*%
%TO.N,D4*%
X41650000Y-55160000D03*
%TO.P,J12,5,5*%
%TO.N,D5*%
X44420000Y-55160000D03*
%TO.P,J12,6,6*%
%TO.N,D6*%
X34725000Y-52320000D03*
%TO.P,J12,7,7*%
%TO.N,D7*%
X37495000Y-52320000D03*
%TO.P,J12,8,8*%
%TO.N,unconnected-(J12-Pad8)*%
X40265000Y-52320000D03*
%TO.P,J12,9,9*%
%TO.N,unconnected-(J12-Pad9)*%
X43035000Y-52320000D03*
D12*
%TO.P,J12,S1*%
%TO.N,N/C*%
X51375000Y-53740000D03*
%TO.P,J12,S2*%
X26385000Y-53740000D03*
%TD*%
D13*
%TO.P,J2,N,NEG*%
%TO.N,Net-(J14-PadN)*%
X244050000Y-62530000D03*
D14*
%TO.P,J2,P,POS*%
%TO.N,Net-(J14-PadP)*%
X254950000Y-62530000D03*
D15*
%TO.P,J2,S1*%
%TO.N,N/C*%
X258950000Y-53130000D03*
%TO.P,J2,S2*%
X240050000Y-53130000D03*
%TD*%
D16*
%TO.P,J8,1,Pin_1*%
%TO.N,D1*%
X46410000Y-46220000D03*
D17*
%TO.P,J8,2,Pin_2*%
%TO.N,D2*%
X43870000Y-46220000D03*
%TO.P,J8,3,Pin_3*%
%TO.N,D3*%
X41330000Y-46220000D03*
%TO.P,J8,4,Pin_4*%
%TO.N,D4*%
X38790000Y-46220000D03*
%TO.P,J8,5,Pin_5*%
%TO.N,D5*%
X36250000Y-46220000D03*
%TO.P,J8,6,Pin_6*%
%TO.N,D6*%
X33710000Y-46220000D03*
%TO.P,J8,7,Pin_7*%
%TO.N,D7*%
X31170000Y-46220000D03*
%TD*%
D16*
%TO.P,J5,1,Pin_1*%
%TO.N,A1*%
X226400000Y-46230000D03*
D17*
%TO.P,J5,2,Pin_2*%
%TO.N,A2*%
X223860000Y-46230000D03*
%TO.P,J5,3,Pin_3*%
%TO.N,A3*%
X221320000Y-46230000D03*
%TO.P,J5,4,Pin_4*%
%TO.N,A4*%
X218780000Y-46230000D03*
%TO.P,J5,5,Pin_5*%
%TO.N,A5*%
X216240000Y-46230000D03*
%TO.P,J5,6,Pin_6*%
%TO.N,A6*%
X213700000Y-46230000D03*
%TO.P,J5,7,Pin_7*%
%TO.N,A7*%
X211160000Y-46230000D03*
%TD*%
D13*
%TO.P,J13,N,NEG*%
%TO.N,Net-(J1-PadN)*%
X183930000Y-72000000D03*
D14*
%TO.P,J13,P,POS*%
%TO.N,Net-(J1-PadP)*%
X194830000Y-72000000D03*
D15*
%TO.P,J13,S1*%
%TO.N,N/C*%
X198830000Y-80900000D03*
%TO.P,J13,S2*%
X179930000Y-80900000D03*
%TD*%
D18*
%TO.N,Net-(J16-PadN)*%
X64040000Y-62540000D02*
X64040000Y-71890000D01*
X64040000Y-71890000D02*
X63940000Y-71990000D01*
%TO.N,Net-(J16-PadP)*%
X74940000Y-71890000D02*
X74840000Y-71990000D01*
X74940000Y-62540000D02*
X74940000Y-71890000D01*
%TO.N,Net-(J15-PadN)*%
X124040000Y-71890000D02*
X123930000Y-72000000D01*
X124040000Y-62540000D02*
X124040000Y-71890000D01*
%TO.N,Net-(J15-PadP)*%
X134940000Y-62540000D02*
X134940000Y-71890000D01*
X134940000Y-71890000D02*
X134830000Y-72000000D01*
%TO.N,Net-(J1-PadN)*%
X184040000Y-62540000D02*
X184040000Y-71890000D01*
X184040000Y-71890000D02*
X183930000Y-72000000D01*
%TO.N,Net-(J1-PadP)*%
X194940000Y-71890000D02*
X194830000Y-72000000D01*
X194940000Y-62540000D02*
X194940000Y-71890000D01*
%TO.N,Net-(J14-PadN)*%
X244050000Y-71890000D02*
X243940000Y-72000000D01*
X244050000Y-62530000D02*
X244050000Y-71890000D01*
%TO.N,Net-(J14-PadP)*%
X254950000Y-71890000D02*
X254840000Y-72000000D01*
X254950000Y-62530000D02*
X254950000Y-71890000D01*
%TD*%
M02*
