%TF.GenerationSoftware,KiCad,Pcbnew,6.0.2+dfsg-1*%
%TF.CreationDate,2024-03-03T02:30:20+01:00*%
%TF.ProjectId,RACK_CONNECTOR_V2,5241434b-5f43-44f4-9e4e-4543544f525f,rev?*%
%TF.SameCoordinates,Original*%
%TF.FileFunction,Copper,L1,Top*%
%TF.FilePolarity,Positive*%
%FSLAX46Y46*%
G04 Gerber Fmt 4.6, Leading zero omitted, Abs format (unit mm)*
G04 Created by KiCad (PCBNEW 6.0.2+dfsg-1) date 2024-03-03 02:30:20*
%MOMM*%
%LPD*%
G01*
G04 APERTURE LIST*
%TA.AperFunction,NonConductor*%
%ADD10C,7.000000*%
%TD*%
%TA.AperFunction,ComponentPad*%
%ADD11R,1.700000X1.700000*%
%TD*%
%TA.AperFunction,ComponentPad*%
%ADD12O,1.700000X1.700000*%
%TD*%
%TA.AperFunction,ComponentPad*%
%ADD13C,4.916000*%
%TD*%
%TA.AperFunction,ComponentPad*%
%ADD14R,4.916000X4.916000*%
%TD*%
%TA.AperFunction,ComponentPad*%
%ADD15O,1.300000X2.600000*%
%TD*%
%TA.AperFunction,ComponentPad*%
%ADD16R,1.575000X1.575000*%
%TD*%
%TA.AperFunction,ComponentPad*%
%ADD17C,1.575000*%
%TD*%
%TA.AperFunction,ComponentPad*%
%ADD18C,4.116000*%
%TD*%
%TA.AperFunction,Conductor*%
%ADD19C,0.250000*%
%TD*%
G04 APERTURE END LIST*
D10*
X263330000Y-107690000D02*
X263380000Y-107640000D01*
X263380000Y-107640000D02*
X263380000Y-98210000D01*
X263380000Y-98210000D02*
X263330000Y-107690000D01*
X252450000Y-107660000D02*
X252500000Y-107610000D01*
X252500000Y-107610000D02*
X252500000Y-98180000D01*
X252500000Y-98180000D02*
X252450000Y-107660000D01*
X203320000Y-107680000D02*
X203370000Y-107630000D01*
X203370000Y-107630000D02*
X203370000Y-98200000D01*
X203370000Y-98200000D02*
X203320000Y-107680000D01*
X192370000Y-107640000D02*
X192420000Y-107590000D01*
X192420000Y-107590000D02*
X192420000Y-98160000D01*
X192420000Y-98160000D02*
X192370000Y-107640000D01*
X143340000Y-107710000D02*
X143390000Y-107660000D01*
X143390000Y-107660000D02*
X143390000Y-98230000D01*
X143390000Y-98230000D02*
X143340000Y-107710000D01*
X132450000Y-107670000D02*
X132500000Y-107620000D01*
X132500000Y-107620000D02*
X132500000Y-98190000D01*
X132500000Y-98190000D02*
X132450000Y-107670000D01*
X83290000Y-107750000D02*
X83340000Y-107700000D01*
X83340000Y-107700000D02*
X83340000Y-98270000D01*
X83340000Y-98270000D02*
X83290000Y-107750000D01*
X72420000Y-107690000D02*
X72470000Y-107640000D01*
X72470000Y-107640000D02*
X72470000Y-98210000D01*
X72470000Y-98210000D02*
X72420000Y-107690000D01*
D11*
%TO.P,J28,1,Pin_1*%
%TO.N,Net-(J12-Pad1)*%
X57460000Y-83150000D03*
D12*
%TO.P,J28,2,Pin_2*%
%TO.N,Net-(J12-Pad2)*%
X54920000Y-83150000D03*
%TO.P,J28,3,Pin_3*%
%TO.N,Net-(J12-Pad3)*%
X52380000Y-83150000D03*
%TO.P,J28,4,Pin_4*%
%TO.N,Net-(J12-Pad4)*%
X49840000Y-83150000D03*
%TO.P,J28,5,Pin_5*%
%TO.N,Net-(J12-Pad5)*%
X47300000Y-83150000D03*
%TO.P,J28,6,Pin_6*%
%TO.N,Net-(J12-Pad6)*%
X44760000Y-83150000D03*
%TO.P,J28,7,Pin_7*%
%TO.N,Net-(J12-Pad7)*%
X42220000Y-83150000D03*
%TO.P,J28,8,Pin_8*%
%TO.N,Net-(J12-Pad8)*%
X39680000Y-83150000D03*
%TO.P,J28,9,Pin_9*%
%TO.N,Net-(J12-Pad9)*%
X37140000Y-83150000D03*
%TD*%
%TO.P,J27,9,Pin_9*%
%TO.N,Net-(J11-Pad9)*%
X217170000Y-83140000D03*
%TO.P,J27,8,Pin_8*%
%TO.N,Net-(J11-Pad8)*%
X219710000Y-83140000D03*
%TO.P,J27,7,Pin_7*%
%TO.N,Net-(J11-Pad7)*%
X222250000Y-83140000D03*
%TO.P,J27,6,Pin_6*%
%TO.N,Net-(J11-Pad6)*%
X224790000Y-83140000D03*
%TO.P,J27,5,Pin_5*%
%TO.N,Net-(J11-Pad5)*%
X227330000Y-83140000D03*
%TO.P,J27,4,Pin_4*%
%TO.N,Net-(J11-Pad4)*%
X229870000Y-83140000D03*
%TO.P,J27,3,Pin_3*%
%TO.N,Net-(J11-Pad3)*%
X232410000Y-83140000D03*
%TO.P,J27,2,Pin_2*%
%TO.N,Net-(J11-Pad2)*%
X234950000Y-83140000D03*
D11*
%TO.P,J27,1,Pin_1*%
%TO.N,Net-(J11-Pad1)*%
X237490000Y-83140000D03*
%TD*%
%TO.P,J26,1,Pin_1*%
%TO.N,Net-(J10-Pad1)*%
X117500000Y-83150000D03*
D12*
%TO.P,J26,2,Pin_2*%
%TO.N,Net-(J10-Pad2)*%
X114960000Y-83150000D03*
%TO.P,J26,3,Pin_3*%
%TO.N,Net-(J10-Pad3)*%
X112420000Y-83150000D03*
%TO.P,J26,4,Pin_4*%
%TO.N,Net-(J10-Pad4)*%
X109880000Y-83150000D03*
%TO.P,J26,5,Pin_5*%
%TO.N,Net-(J10-Pad5)*%
X107340000Y-83150000D03*
%TO.P,J26,6,Pin_6*%
%TO.N,Net-(J10-Pad6)*%
X104800000Y-83150000D03*
%TO.P,J26,7,Pin_7*%
%TO.N,Net-(J10-Pad7)*%
X102260000Y-83150000D03*
%TO.P,J26,8,Pin_8*%
%TO.N,Net-(J10-Pad8)*%
X99720000Y-83150000D03*
%TO.P,J26,9,Pin_9*%
%TO.N,Net-(J10-Pad9)*%
X97180000Y-83150000D03*
%TD*%
D11*
%TO.P,J25,1,Pin_1*%
%TO.N,Net-(J13-Pad9)*%
X177500000Y-83150000D03*
D12*
%TO.P,J25,2,Pin_2*%
%TO.N,Net-(J13-Pad8)*%
X174960000Y-83150000D03*
%TO.P,J25,3,Pin_3*%
%TO.N,Net-(J13-Pad7)*%
X172420000Y-83150000D03*
%TO.P,J25,4,Pin_4*%
%TO.N,Net-(J13-Pad6)*%
X169880000Y-83150000D03*
%TO.P,J25,5,Pin_5*%
%TO.N,Net-(J13-Pad5)*%
X167340000Y-83150000D03*
%TO.P,J25,6,Pin_6*%
%TO.N,Net-(J13-Pad4)*%
X164800000Y-83150000D03*
%TO.P,J25,7,Pin_7*%
%TO.N,Net-(J13-Pad3)*%
X162260000Y-83150000D03*
%TO.P,J25,8,Pin_8*%
%TO.N,Net-(J13-Pad2)*%
X159720000Y-83150000D03*
%TO.P,J25,9,Pin_9*%
%TO.N,Net-(J13-Pad1)*%
X157180000Y-83150000D03*
%TD*%
D13*
%TO.P,J24,N,NEG*%
%TO.N,Net-(J20-PadN)*%
X72450000Y-98200000D03*
D14*
%TO.P,J24,P,POS*%
%TO.N,Net-(J20-PadP)*%
X83350000Y-98200000D03*
D15*
%TO.P,J24,S1*%
%TO.N,N/C*%
X87350000Y-88800000D03*
%TO.P,J24,S2*%
X68450000Y-88800000D03*
%TD*%
%TO.P,J23,S2*%
%TO.N,N/C*%
X128490000Y-88820000D03*
%TO.P,J23,S1*%
X147390000Y-88820000D03*
D14*
%TO.P,J23,P,POS*%
%TO.N,Net-(J19-PadP)*%
X143390000Y-98220000D03*
D13*
%TO.P,J23,N,NEG*%
%TO.N,Net-(J19-PadN)*%
X132490000Y-98220000D03*
%TD*%
D15*
%TO.P,J22,S2*%
%TO.N,N/C*%
X188480000Y-88830000D03*
%TO.P,J22,S1*%
X207380000Y-88830000D03*
D14*
%TO.P,J22,P,POS*%
%TO.N,Net-(J18-PadP)*%
X203380000Y-98230000D03*
D13*
%TO.P,J22,N,NEG*%
%TO.N,Net-(J18-PadN)*%
X192480000Y-98230000D03*
%TD*%
D15*
%TO.P,J21,S2*%
%TO.N,N/C*%
X248500000Y-88820000D03*
%TO.P,J21,S1*%
X267400000Y-88820000D03*
D14*
%TO.P,J21,P,POS*%
%TO.N,Net-(J17-PadP)*%
X263400000Y-98220000D03*
D13*
%TO.P,J21,N,NEG*%
%TO.N,Net-(J17-PadN)*%
X252500000Y-98220000D03*
%TD*%
D15*
%TO.P,J20,S2*%
%TO.N,N/C*%
X68400000Y-116580000D03*
%TO.P,J20,S1*%
X87300000Y-116580000D03*
D14*
%TO.P,J20,P,POS*%
%TO.N,Net-(J20-PadP)*%
X83300000Y-107680000D03*
D13*
%TO.P,J20,N,NEG*%
%TO.N,Net-(J20-PadN)*%
X72400000Y-107680000D03*
%TD*%
D15*
%TO.P,J19,S2*%
%TO.N,N/C*%
X128370000Y-116580000D03*
%TO.P,J19,S1*%
X147270000Y-116580000D03*
D14*
%TO.P,J19,P,POS*%
%TO.N,Net-(J19-PadP)*%
X143270000Y-107680000D03*
D13*
%TO.P,J19,N,NEG*%
%TO.N,Net-(J19-PadN)*%
X132370000Y-107680000D03*
%TD*%
D15*
%TO.P,J18,S2*%
%TO.N,N/C*%
X188410000Y-116590000D03*
%TO.P,J18,S1*%
X207310000Y-116590000D03*
D14*
%TO.P,J18,P,POS*%
%TO.N,Net-(J18-PadP)*%
X203310000Y-107690000D03*
D13*
%TO.P,J18,N,NEG*%
%TO.N,Net-(J18-PadN)*%
X192410000Y-107690000D03*
%TD*%
D15*
%TO.P,J17,S2*%
%TO.N,N/C*%
X248410000Y-116580000D03*
%TO.P,J17,S1*%
X267310000Y-116580000D03*
D14*
%TO.P,J17,P,POS*%
%TO.N,Net-(J17-PadP)*%
X263310000Y-107680000D03*
D13*
%TO.P,J17,N,NEG*%
%TO.N,Net-(J17-PadN)*%
X252410000Y-107680000D03*
%TD*%
D16*
%TO.P,J16,1,1*%
%TO.N,Net-(J12-Pad9)*%
X41765000Y-90860000D03*
D17*
%TO.P,J16,2,2*%
%TO.N,Net-(J12-Pad8)*%
X44535000Y-90860000D03*
%TO.P,J16,3,3*%
%TO.N,Net-(J12-Pad7)*%
X47305000Y-90860000D03*
%TO.P,J16,4,4*%
%TO.N,Net-(J12-Pad6)*%
X50075000Y-90860000D03*
%TO.P,J16,5,5*%
%TO.N,Net-(J12-Pad5)*%
X52845000Y-90860000D03*
%TO.P,J16,6,6*%
%TO.N,Net-(J12-Pad4)*%
X43150000Y-88020000D03*
%TO.P,J16,7,7*%
%TO.N,Net-(J12-Pad3)*%
X45920000Y-88020000D03*
%TO.P,J16,8,8*%
%TO.N,Net-(J12-Pad2)*%
X48690000Y-88020000D03*
%TO.P,J16,9,9*%
%TO.N,Net-(J12-Pad1)*%
X51460000Y-88020000D03*
D18*
%TO.P,J16,S1*%
%TO.N,N/C*%
X59800000Y-89440000D03*
%TO.P,J16,S2*%
X34810000Y-89440000D03*
%TD*%
%TO.P,J15,S2*%
%TO.N,N/C*%
X214845000Y-89440000D03*
%TO.P,J15,S1*%
X239835000Y-89440000D03*
D17*
%TO.P,J15,9,9*%
%TO.N,Net-(J11-Pad1)*%
X231495000Y-88020000D03*
%TO.P,J15,8,8*%
%TO.N,Net-(J11-Pad2)*%
X228725000Y-88020000D03*
%TO.P,J15,7,7*%
%TO.N,Net-(J11-Pad3)*%
X225955000Y-88020000D03*
%TO.P,J15,6,6*%
%TO.N,Net-(J11-Pad4)*%
X223185000Y-88020000D03*
%TO.P,J15,5,5*%
%TO.N,Net-(J11-Pad5)*%
X232880000Y-90860000D03*
%TO.P,J15,4,4*%
%TO.N,Net-(J11-Pad6)*%
X230110000Y-90860000D03*
%TO.P,J15,3,3*%
%TO.N,Net-(J11-Pad7)*%
X227340000Y-90860000D03*
%TO.P,J15,2,2*%
%TO.N,Net-(J11-Pad8)*%
X224570000Y-90860000D03*
D16*
%TO.P,J15,1,1*%
%TO.N,Net-(J11-Pad9)*%
X221800000Y-90860000D03*
%TD*%
D18*
%TO.P,J14,S2*%
%TO.N,N/C*%
X94845000Y-89450000D03*
%TO.P,J14,S1*%
X119835000Y-89450000D03*
D17*
%TO.P,J14,9,9*%
%TO.N,Net-(J10-Pad1)*%
X111495000Y-88030000D03*
%TO.P,J14,8,8*%
%TO.N,Net-(J10-Pad2)*%
X108725000Y-88030000D03*
%TO.P,J14,7,7*%
%TO.N,Net-(J10-Pad3)*%
X105955000Y-88030000D03*
%TO.P,J14,6,6*%
%TO.N,Net-(J10-Pad4)*%
X103185000Y-88030000D03*
%TO.P,J14,5,5*%
%TO.N,Net-(J10-Pad5)*%
X112880000Y-90870000D03*
%TO.P,J14,4,4*%
%TO.N,Net-(J10-Pad6)*%
X110110000Y-90870000D03*
%TO.P,J14,3,3*%
%TO.N,Net-(J10-Pad7)*%
X107340000Y-90870000D03*
%TO.P,J14,2,2*%
%TO.N,Net-(J10-Pad8)*%
X104570000Y-90870000D03*
D16*
%TO.P,J14,1,1*%
%TO.N,Net-(J10-Pad9)*%
X101800000Y-90870000D03*
%TD*%
D18*
%TO.P,J13,S2*%
%TO.N,N/C*%
X154845000Y-89450000D03*
%TO.P,J13,S1*%
X179835000Y-89450000D03*
D17*
%TO.P,J13,9,9*%
%TO.N,Net-(J13-Pad9)*%
X171495000Y-88030000D03*
%TO.P,J13,8,8*%
%TO.N,Net-(J13-Pad8)*%
X168725000Y-88030000D03*
%TO.P,J13,7,7*%
%TO.N,Net-(J13-Pad7)*%
X165955000Y-88030000D03*
%TO.P,J13,6,6*%
%TO.N,Net-(J13-Pad6)*%
X163185000Y-88030000D03*
%TO.P,J13,5,5*%
%TO.N,Net-(J13-Pad5)*%
X172880000Y-90870000D03*
%TO.P,J13,4,4*%
%TO.N,Net-(J13-Pad4)*%
X170110000Y-90870000D03*
%TO.P,J13,3,3*%
%TO.N,Net-(J13-Pad3)*%
X167340000Y-90870000D03*
%TO.P,J13,2,2*%
%TO.N,Net-(J13-Pad2)*%
X164570000Y-90870000D03*
D16*
%TO.P,J13,1,1*%
%TO.N,Net-(J13-Pad1)*%
X161800000Y-90870000D03*
%TD*%
D12*
%TO.P,J12,9,Pin_9*%
%TO.N,Net-(J12-Pad9)*%
X37140000Y-94540000D03*
%TO.P,J12,8,Pin_8*%
%TO.N,Net-(J12-Pad8)*%
X39680000Y-94540000D03*
%TO.P,J12,7,Pin_7*%
%TO.N,Net-(J12-Pad7)*%
X42220000Y-94540000D03*
%TO.P,J12,6,Pin_6*%
%TO.N,Net-(J12-Pad6)*%
X44760000Y-94540000D03*
%TO.P,J12,5,Pin_5*%
%TO.N,Net-(J12-Pad5)*%
X47300000Y-94540000D03*
%TO.P,J12,4,Pin_4*%
%TO.N,Net-(J12-Pad4)*%
X49840000Y-94540000D03*
%TO.P,J12,3,Pin_3*%
%TO.N,Net-(J12-Pad3)*%
X52380000Y-94540000D03*
%TO.P,J12,2,Pin_2*%
%TO.N,Net-(J12-Pad2)*%
X54920000Y-94540000D03*
D11*
%TO.P,J12,1,Pin_1*%
%TO.N,Net-(J12-Pad1)*%
X57460000Y-94540000D03*
%TD*%
%TO.P,J11,1,Pin_1*%
%TO.N,Net-(J11-Pad1)*%
X237500000Y-94550000D03*
D12*
%TO.P,J11,2,Pin_2*%
%TO.N,Net-(J11-Pad2)*%
X234960000Y-94550000D03*
%TO.P,J11,3,Pin_3*%
%TO.N,Net-(J11-Pad3)*%
X232420000Y-94550000D03*
%TO.P,J11,4,Pin_4*%
%TO.N,Net-(J11-Pad4)*%
X229880000Y-94550000D03*
%TO.P,J11,5,Pin_5*%
%TO.N,Net-(J11-Pad5)*%
X227340000Y-94550000D03*
%TO.P,J11,6,Pin_6*%
%TO.N,Net-(J11-Pad6)*%
X224800000Y-94550000D03*
%TO.P,J11,7,Pin_7*%
%TO.N,Net-(J11-Pad7)*%
X222260000Y-94550000D03*
%TO.P,J11,8,Pin_8*%
%TO.N,Net-(J11-Pad8)*%
X219720000Y-94550000D03*
%TO.P,J11,9,Pin_9*%
%TO.N,Net-(J11-Pad9)*%
X217180000Y-94550000D03*
%TD*%
%TO.P,J10,9,Pin_9*%
%TO.N,Net-(J10-Pad9)*%
X97180000Y-94560000D03*
%TO.P,J10,8,Pin_8*%
%TO.N,Net-(J10-Pad8)*%
X99720000Y-94560000D03*
%TO.P,J10,7,Pin_7*%
%TO.N,Net-(J10-Pad7)*%
X102260000Y-94560000D03*
%TO.P,J10,6,Pin_6*%
%TO.N,Net-(J10-Pad6)*%
X104800000Y-94560000D03*
%TO.P,J10,5,Pin_5*%
%TO.N,Net-(J10-Pad5)*%
X107340000Y-94560000D03*
%TO.P,J10,4,Pin_4*%
%TO.N,Net-(J10-Pad4)*%
X109880000Y-94560000D03*
%TO.P,J10,3,Pin_3*%
%TO.N,Net-(J10-Pad3)*%
X112420000Y-94560000D03*
%TO.P,J10,2,Pin_2*%
%TO.N,Net-(J10-Pad2)*%
X114960000Y-94560000D03*
D11*
%TO.P,J10,1,Pin_1*%
%TO.N,Net-(J10-Pad1)*%
X117500000Y-94560000D03*
%TD*%
D12*
%TO.P,J9,9,Pin_9*%
%TO.N,Net-(J13-Pad1)*%
X157180000Y-94550000D03*
%TO.P,J9,8,Pin_8*%
%TO.N,Net-(J13-Pad2)*%
X159720000Y-94550000D03*
%TO.P,J9,7,Pin_7*%
%TO.N,Net-(J13-Pad3)*%
X162260000Y-94550000D03*
%TO.P,J9,6,Pin_6*%
%TO.N,Net-(J13-Pad4)*%
X164800000Y-94550000D03*
%TO.P,J9,5,Pin_5*%
%TO.N,Net-(J13-Pad5)*%
X167340000Y-94550000D03*
%TO.P,J9,4,Pin_4*%
%TO.N,Net-(J13-Pad6)*%
X169880000Y-94550000D03*
%TO.P,J9,3,Pin_3*%
%TO.N,Net-(J13-Pad7)*%
X172420000Y-94550000D03*
%TO.P,J9,2,Pin_2*%
%TO.N,Net-(J13-Pad8)*%
X174960000Y-94550000D03*
D11*
%TO.P,J9,1,Pin_1*%
%TO.N,Net-(J13-Pad9)*%
X177500000Y-94550000D03*
%TD*%
D12*
%TO.P,J8,9,Pin_9*%
%TO.N,Net-(J4-Pad1)*%
X117450000Y-104720000D03*
%TO.P,J8,8,Pin_8*%
%TO.N,Net-(J4-Pad2)*%
X114910000Y-104720000D03*
%TO.P,J8,7,Pin_7*%
%TO.N,Net-(J4-Pad3)*%
X112370000Y-104720000D03*
%TO.P,J8,6,Pin_6*%
%TO.N,Net-(J4-Pad4)*%
X109830000Y-104720000D03*
%TO.P,J8,5,Pin_5*%
%TO.N,Net-(J4-Pad5)*%
X107290000Y-104720000D03*
%TO.P,J8,4,Pin_4*%
%TO.N,Net-(J4-Pad6)*%
X104750000Y-104720000D03*
%TO.P,J8,3,Pin_3*%
%TO.N,Net-(J4-Pad7)*%
X102210000Y-104720000D03*
%TO.P,J8,2,Pin_2*%
%TO.N,Net-(J4-Pad8)*%
X99670000Y-104720000D03*
D11*
%TO.P,J8,1,Pin_1*%
%TO.N,Net-(J4-Pad9)*%
X97130000Y-104720000D03*
%TD*%
D12*
%TO.P,J7,9,Pin_9*%
%TO.N,Net-(J3-Pad1)*%
X177450000Y-104710000D03*
%TO.P,J7,8,Pin_8*%
%TO.N,Net-(J3-Pad2)*%
X174910000Y-104710000D03*
%TO.P,J7,7,Pin_7*%
%TO.N,Net-(J3-Pad3)*%
X172370000Y-104710000D03*
%TO.P,J7,6,Pin_6*%
%TO.N,Net-(J3-Pad4)*%
X169830000Y-104710000D03*
%TO.P,J7,5,Pin_5*%
%TO.N,Net-(J3-Pad5)*%
X167290000Y-104710000D03*
%TO.P,J7,4,Pin_4*%
%TO.N,Net-(J3-Pad6)*%
X164750000Y-104710000D03*
%TO.P,J7,3,Pin_3*%
%TO.N,Net-(J3-Pad7)*%
X162210000Y-104710000D03*
%TO.P,J7,2,Pin_2*%
%TO.N,Net-(J3-Pad8)*%
X159670000Y-104710000D03*
D11*
%TO.P,J7,1,Pin_1*%
%TO.N,Net-(J3-Pad9)*%
X157130000Y-104710000D03*
%TD*%
D12*
%TO.P,J6,9,Pin_9*%
%TO.N,Net-(J2-Pad1)*%
X237450000Y-104720000D03*
%TO.P,J6,8,Pin_8*%
%TO.N,Net-(J2-Pad2)*%
X234910000Y-104720000D03*
%TO.P,J6,7,Pin_7*%
%TO.N,Net-(J2-Pad3)*%
X232370000Y-104720000D03*
%TO.P,J6,6,Pin_6*%
%TO.N,Net-(J2-Pad4)*%
X229830000Y-104720000D03*
%TO.P,J6,5,Pin_5*%
%TO.N,Net-(J2-Pad5)*%
X227290000Y-104720000D03*
%TO.P,J6,4,Pin_4*%
%TO.N,Net-(J2-Pad6)*%
X224750000Y-104720000D03*
%TO.P,J6,3,Pin_3*%
%TO.N,Net-(J2-Pad7)*%
X222210000Y-104720000D03*
%TO.P,J6,2,Pin_2*%
%TO.N,Net-(J2-Pad8)*%
X219670000Y-104720000D03*
D11*
%TO.P,J6,1,Pin_1*%
%TO.N,Net-(J2-Pad9)*%
X217130000Y-104720000D03*
%TD*%
D12*
%TO.P,J5,9,Pin_9*%
%TO.N,Net-(J1-Pad1)*%
X57450000Y-104740000D03*
%TO.P,J5,8,Pin_8*%
%TO.N,Net-(J1-Pad2)*%
X54910000Y-104740000D03*
%TO.P,J5,7,Pin_7*%
%TO.N,Net-(J1-Pad3)*%
X52370000Y-104740000D03*
%TO.P,J5,6,Pin_6*%
%TO.N,Net-(J1-Pad4)*%
X49830000Y-104740000D03*
%TO.P,J5,5,Pin_5*%
%TO.N,Net-(J1-Pad5)*%
X47290000Y-104740000D03*
%TO.P,J5,4,Pin_4*%
%TO.N,Net-(J1-Pad6)*%
X44750000Y-104740000D03*
%TO.P,J5,3,Pin_3*%
%TO.N,Net-(J1-Pad7)*%
X42210000Y-104740000D03*
%TO.P,J5,2,Pin_2*%
%TO.N,Net-(J1-Pad8)*%
X39670000Y-104740000D03*
D11*
%TO.P,J5,1,Pin_1*%
%TO.N,Net-(J1-Pad9)*%
X37130000Y-104740000D03*
%TD*%
D18*
%TO.P,J4,S2*%
%TO.N,N/C*%
X119795000Y-109800000D03*
%TO.P,J4,S1*%
X94805000Y-109800000D03*
D17*
%TO.P,J4,9,9*%
%TO.N,Net-(J4-Pad9)*%
X103145000Y-111220000D03*
%TO.P,J4,8,8*%
%TO.N,Net-(J4-Pad8)*%
X105915000Y-111220000D03*
%TO.P,J4,7,7*%
%TO.N,Net-(J4-Pad7)*%
X108685000Y-111220000D03*
%TO.P,J4,6,6*%
%TO.N,Net-(J4-Pad6)*%
X111455000Y-111220000D03*
%TO.P,J4,5,5*%
%TO.N,Net-(J4-Pad5)*%
X101760000Y-108380000D03*
%TO.P,J4,4,4*%
%TO.N,Net-(J4-Pad4)*%
X104530000Y-108380000D03*
%TO.P,J4,3,3*%
%TO.N,Net-(J4-Pad3)*%
X107300000Y-108380000D03*
%TO.P,J4,2,2*%
%TO.N,Net-(J4-Pad2)*%
X110070000Y-108380000D03*
D16*
%TO.P,J4,1,1*%
%TO.N,Net-(J4-Pad1)*%
X112840000Y-108380000D03*
%TD*%
%TO.P,J3,1,1*%
%TO.N,Net-(J3-Pad1)*%
X172840000Y-108380000D03*
D17*
%TO.P,J3,2,2*%
%TO.N,Net-(J3-Pad2)*%
X170070000Y-108380000D03*
%TO.P,J3,3,3*%
%TO.N,Net-(J3-Pad3)*%
X167300000Y-108380000D03*
%TO.P,J3,4,4*%
%TO.N,Net-(J3-Pad4)*%
X164530000Y-108380000D03*
%TO.P,J3,5,5*%
%TO.N,Net-(J3-Pad5)*%
X161760000Y-108380000D03*
%TO.P,J3,6,6*%
%TO.N,Net-(J3-Pad6)*%
X171455000Y-111220000D03*
%TO.P,J3,7,7*%
%TO.N,Net-(J3-Pad7)*%
X168685000Y-111220000D03*
%TO.P,J3,8,8*%
%TO.N,Net-(J3-Pad8)*%
X165915000Y-111220000D03*
%TO.P,J3,9,9*%
%TO.N,Net-(J3-Pad9)*%
X163145000Y-111220000D03*
D18*
%TO.P,J3,S1*%
%TO.N,N/C*%
X154805000Y-109800000D03*
%TO.P,J3,S2*%
X179795000Y-109800000D03*
%TD*%
%TO.P,J2,S2*%
%TO.N,N/C*%
X239795000Y-109800000D03*
%TO.P,J2,S1*%
X214805000Y-109800000D03*
D17*
%TO.P,J2,9,9*%
%TO.N,Net-(J2-Pad9)*%
X223145000Y-111220000D03*
%TO.P,J2,8,8*%
%TO.N,Net-(J2-Pad8)*%
X225915000Y-111220000D03*
%TO.P,J2,7,7*%
%TO.N,Net-(J2-Pad7)*%
X228685000Y-111220000D03*
%TO.P,J2,6,6*%
%TO.N,Net-(J2-Pad6)*%
X231455000Y-111220000D03*
%TO.P,J2,5,5*%
%TO.N,Net-(J2-Pad5)*%
X221760000Y-108380000D03*
%TO.P,J2,4,4*%
%TO.N,Net-(J2-Pad4)*%
X224530000Y-108380000D03*
%TO.P,J2,3,3*%
%TO.N,Net-(J2-Pad3)*%
X227300000Y-108380000D03*
%TO.P,J2,2,2*%
%TO.N,Net-(J2-Pad2)*%
X230070000Y-108380000D03*
D16*
%TO.P,J2,1,1*%
%TO.N,Net-(J2-Pad1)*%
X232840000Y-108380000D03*
%TD*%
D18*
%TO.P,J1,S2*%
%TO.N,N/C*%
X59795000Y-109830000D03*
%TO.P,J1,S1*%
X34805000Y-109830000D03*
D17*
%TO.P,J1,9,9*%
%TO.N,Net-(J1-Pad9)*%
X43145000Y-111250000D03*
%TO.P,J1,8,8*%
%TO.N,Net-(J1-Pad8)*%
X45915000Y-111250000D03*
%TO.P,J1,7,7*%
%TO.N,Net-(J1-Pad7)*%
X48685000Y-111250000D03*
%TO.P,J1,6,6*%
%TO.N,Net-(J1-Pad6)*%
X51455000Y-111250000D03*
%TO.P,J1,5,5*%
%TO.N,Net-(J1-Pad5)*%
X41760000Y-108410000D03*
%TO.P,J1,4,4*%
%TO.N,Net-(J1-Pad4)*%
X44530000Y-108410000D03*
%TO.P,J1,3,3*%
%TO.N,Net-(J1-Pad3)*%
X47300000Y-108410000D03*
%TO.P,J1,2,2*%
%TO.N,Net-(J1-Pad2)*%
X50070000Y-108410000D03*
D16*
%TO.P,J1,1,1*%
%TO.N,Net-(J1-Pad1)*%
X52840000Y-108410000D03*
%TD*%
D19*
%TO.N,Net-(J12-Pad9)*%
X41765000Y-90860000D02*
X37140000Y-86235000D01*
X37140000Y-86235000D02*
X37140000Y-83150000D01*
%TO.N,Net-(J12-Pad8)*%
X44535000Y-90860000D02*
X43057011Y-89382011D01*
X43057011Y-89382011D02*
X42585835Y-89382011D01*
X42585835Y-89382011D02*
X39680000Y-86476176D01*
X39680000Y-86476176D02*
X39680000Y-83150000D01*
%TO.N,Net-(J12-Pad7)*%
X47305000Y-90860000D02*
X45942989Y-89497989D01*
X44512011Y-89252011D02*
X44512011Y-85442011D01*
X45942989Y-89497989D02*
X44757989Y-89497989D01*
X44757989Y-89497989D02*
X44512011Y-89252011D01*
X44512011Y-85442011D02*
X42220000Y-83150000D01*
%TO.N,Net-(J12-Pad6)*%
X50075000Y-90860000D02*
X49603824Y-90860000D01*
X49603824Y-90860000D02*
X47282011Y-88538187D01*
X47282011Y-88538187D02*
X47282011Y-85672011D01*
X47282011Y-85672011D02*
X44760000Y-83150000D01*
%TO.N,Net-(J12-Pad5)*%
X52845000Y-90860000D02*
X51482989Y-89497989D01*
X51482989Y-89497989D02*
X50507989Y-89497989D01*
X50507989Y-89497989D02*
X50052011Y-89042011D01*
X50052011Y-89042011D02*
X50052011Y-85902011D01*
X50052011Y-85902011D02*
X47300000Y-83150000D01*
%TO.N,Net-(J10-Pad9)*%
X101800000Y-90870000D02*
X97180000Y-86250000D01*
X97180000Y-86250000D02*
X97180000Y-83150000D01*
%TO.N,Net-(J10-Pad8)*%
X104570000Y-90870000D02*
X103092011Y-89392011D01*
X103092011Y-89392011D02*
X102620835Y-89392011D01*
X102620835Y-89392011D02*
X99720000Y-86491176D01*
X99720000Y-86491176D02*
X99720000Y-83150000D01*
%TO.N,Net-(J10-Pad7)*%
X107340000Y-90870000D02*
X106868824Y-90870000D01*
X106868824Y-90870000D02*
X104590000Y-88591176D01*
X104590000Y-88591176D02*
X104590000Y-85480000D01*
X104590000Y-85480000D02*
X102260000Y-83150000D01*
%TO.N,Net-(J10-Pad6)*%
X110110000Y-90870000D02*
X109638824Y-90870000D01*
X109638824Y-90870000D02*
X107362989Y-88594165D01*
X107362989Y-88594165D02*
X107362989Y-85712989D01*
X107362989Y-85712989D02*
X104800000Y-83150000D01*
%TO.N,Net-(J10-Pad5)*%
X112880000Y-90870000D02*
X112408824Y-90870000D01*
X112408824Y-90870000D02*
X110110000Y-88571176D01*
X110110000Y-88571176D02*
X110110000Y-85920000D01*
X110110000Y-85920000D02*
X107340000Y-83150000D01*
%TO.N,Net-(J13-Pad1)*%
X161800000Y-90870000D02*
X157180000Y-86250000D01*
X157180000Y-86250000D02*
X157180000Y-83150000D01*
%TO.N,Net-(J13-Pad2)*%
X164570000Y-90870000D02*
X163092011Y-89392011D01*
X163092011Y-89392011D02*
X162620835Y-89392011D01*
X162620835Y-89392011D02*
X159720000Y-86491176D01*
X159720000Y-86491176D02*
X159720000Y-83150000D01*
%TO.N,Net-(J13-Pad3)*%
X167340000Y-90870000D02*
X166868824Y-90870000D01*
X166868824Y-90870000D02*
X164580000Y-88581176D01*
X164580000Y-88581176D02*
X164580000Y-85470000D01*
X164580000Y-85470000D02*
X162260000Y-83150000D01*
%TO.N,Net-(J13-Pad4)*%
X170110000Y-90870000D02*
X169638824Y-90870000D01*
X169638824Y-90870000D02*
X167317011Y-88548187D01*
X167317011Y-88548187D02*
X167317011Y-85667011D01*
X167317011Y-85667011D02*
X164800000Y-83150000D01*
%TO.N,Net-(J13-Pad5)*%
X172880000Y-90870000D02*
X172408824Y-90870000D01*
X172408824Y-90870000D02*
X170132989Y-88594165D01*
X170132989Y-88594165D02*
X170132989Y-85942989D01*
X170132989Y-85942989D02*
X167340000Y-83150000D01*
%TO.N,Net-(J11-Pad9)*%
X221800000Y-90860000D02*
X217170000Y-86230000D01*
X217170000Y-86230000D02*
X217170000Y-83140000D01*
%TO.N,Net-(J11-Pad8)*%
X224570000Y-90860000D02*
X223092011Y-89382011D01*
X223092011Y-89382011D02*
X222562011Y-89382011D01*
X222562011Y-89382011D02*
X219710000Y-86530000D01*
X219710000Y-86530000D02*
X219710000Y-83140000D01*
%TO.N,Net-(J11-Pad7)*%
X227340000Y-90860000D02*
X226630000Y-90860000D01*
X226630000Y-90860000D02*
X224580000Y-88810000D01*
X224580000Y-88810000D02*
X224580000Y-85470000D01*
X224580000Y-85470000D02*
X222250000Y-83140000D01*
%TO.N,Net-(J11-Pad6)*%
X230110000Y-90860000D02*
X228747989Y-89497989D01*
X227317011Y-85667011D02*
X224790000Y-83140000D01*
X228747989Y-89497989D02*
X227667989Y-89497989D01*
X227667989Y-89497989D02*
X227317011Y-89147011D01*
X227317011Y-89147011D02*
X227317011Y-85667011D01*
%TO.N,Net-(J11-Pad5)*%
X232880000Y-90860000D02*
X232408824Y-90860000D01*
X232408824Y-90860000D02*
X230100000Y-88551176D01*
X230100000Y-88551176D02*
X230100000Y-85910000D01*
X230100000Y-85910000D02*
X227330000Y-83140000D01*
X232880000Y-90860000D02*
X230818470Y-92921530D01*
X230818470Y-92921530D02*
X228968470Y-92921530D01*
X228968470Y-92921530D02*
X227340000Y-94550000D01*
%TO.N,Net-(J11-Pad6)*%
X230110000Y-90860000D02*
X228747989Y-92222011D01*
X228747989Y-92222011D02*
X227127989Y-92222011D01*
X227127989Y-92222011D02*
X224800000Y-94550000D01*
%TO.N,Net-(J11-Pad7)*%
X227340000Y-90860000D02*
X225278470Y-92921530D01*
X225278470Y-92921530D02*
X223888470Y-92921530D01*
X223888470Y-92921530D02*
X222260000Y-94550000D01*
%TO.N,Net-(J11-Pad8)*%
X224570000Y-90860000D02*
X223207989Y-92222011D01*
X223207989Y-92222011D02*
X222047989Y-92222011D01*
X222047989Y-92222011D02*
X219720000Y-94550000D01*
%TO.N,Net-(J11-Pad9)*%
X221800000Y-90860000D02*
X220870000Y-90860000D01*
X220870000Y-90860000D02*
X217180000Y-94550000D01*
%TO.N,Net-(J13-Pad5)*%
X172880000Y-90870000D02*
X171517989Y-92232011D01*
X171517989Y-92232011D02*
X169737259Y-92232011D01*
X169737259Y-92232011D02*
X167419270Y-94550000D01*
X167419270Y-94550000D02*
X167340000Y-94550000D01*
%TO.N,Net-(J13-Pad4)*%
X170110000Y-90870000D02*
X168048469Y-92931531D01*
X168048469Y-92931531D02*
X166418469Y-92931531D01*
X166418469Y-92931531D02*
X164800000Y-94550000D01*
%TO.N,Net-(J13-Pad3)*%
X167340000Y-90870000D02*
X165977989Y-92232011D01*
X165977989Y-92232011D02*
X164577989Y-92232011D01*
X164577989Y-92232011D02*
X162260000Y-94550000D01*
%TO.N,Net-(J13-Pad2)*%
X164570000Y-90870000D02*
X162314511Y-93125489D01*
X162314511Y-93125489D02*
X161144511Y-93125489D01*
X161144511Y-93125489D02*
X159720000Y-94550000D01*
%TO.N,Net-(J13-Pad1)*%
X161800000Y-90870000D02*
X160860000Y-90870000D01*
X160860000Y-90870000D02*
X157180000Y-94550000D01*
%TO.N,Net-(J10-Pad5)*%
X112880000Y-90870000D02*
X110818469Y-92931531D01*
X110818469Y-92931531D02*
X108968469Y-92931531D01*
X108968469Y-92931531D02*
X107340000Y-94560000D01*
%TO.N,Net-(J10-Pad6)*%
X110110000Y-90870000D02*
X108747989Y-92232011D01*
X108747989Y-92232011D02*
X107127989Y-92232011D01*
X107127989Y-92232011D02*
X104800000Y-94560000D01*
%TO.N,Net-(J10-Pad7)*%
X107340000Y-90870000D02*
X105278470Y-92931530D01*
X105278470Y-92931530D02*
X103888470Y-92931530D01*
X103888470Y-92931530D02*
X102260000Y-94560000D01*
%TO.N,Net-(J10-Pad8)*%
X104570000Y-90870000D02*
X103207989Y-92232011D01*
X103207989Y-92232011D02*
X102047989Y-92232011D01*
X102047989Y-92232011D02*
X99720000Y-94560000D01*
%TO.N,Net-(J10-Pad9)*%
X101800000Y-90870000D02*
X100870000Y-90870000D01*
X100870000Y-90870000D02*
X97180000Y-94560000D01*
%TO.N,Net-(J12-Pad5)*%
X52845000Y-90860000D02*
X51482989Y-92222011D01*
X51482989Y-92222011D02*
X49737989Y-92222011D01*
X49737989Y-92222011D02*
X47420000Y-94540000D01*
X47420000Y-94540000D02*
X47300000Y-94540000D01*
%TO.N,Net-(J12-Pad6)*%
X50075000Y-90860000D02*
X48712989Y-92222011D01*
X48712989Y-92222011D02*
X47077989Y-92222011D01*
X47077989Y-92222011D02*
X44760000Y-94540000D01*
%TO.N,Net-(J12-Pad7)*%
X47305000Y-90860000D02*
X45942989Y-92222011D01*
X45942989Y-92222011D02*
X44537989Y-92222011D01*
X44537989Y-92222011D02*
X42220000Y-94540000D01*
%TO.N,Net-(J12-Pad8)*%
X44535000Y-90860000D02*
X43172989Y-92222011D01*
X43172989Y-92222011D02*
X41997989Y-92222011D01*
X41997989Y-92222011D02*
X39680000Y-94540000D01*
%TO.N,Net-(J12-Pad9)*%
X41765000Y-90860000D02*
X40820000Y-90860000D01*
X40820000Y-90860000D02*
X37140000Y-94540000D01*
%TO.N,Net-(J2-Pad1)*%
X232840000Y-108380000D02*
X233790000Y-108380000D01*
X233790000Y-108380000D02*
X237450000Y-104720000D01*
%TO.N,Net-(J2-Pad2)*%
X230070000Y-108380000D02*
X232305489Y-106144511D01*
X232305489Y-106144511D02*
X233485489Y-106144511D01*
X233485489Y-106144511D02*
X234910000Y-104720000D01*
%TO.N,Net-(J2-Pad3)*%
X227300000Y-108380000D02*
X229535489Y-106144511D01*
X229535489Y-106144511D02*
X230945489Y-106144511D01*
X230945489Y-106144511D02*
X232370000Y-104720000D01*
%TO.N,Net-(J2-Pad4)*%
X224530000Y-108380000D02*
X225892011Y-107017989D01*
X225892011Y-107017989D02*
X227532011Y-107017989D01*
X227532011Y-107017989D02*
X229830000Y-104720000D01*
%TO.N,Net-(J3-Pad1)*%
X172840000Y-108380000D02*
X173780000Y-108380000D01*
X173780000Y-108380000D02*
X177450000Y-104710000D01*
%TO.N,Net-(J3-Pad2)*%
X170070000Y-108380000D02*
X172315489Y-106134511D01*
X172315489Y-106134511D02*
X173485489Y-106134511D01*
X173485489Y-106134511D02*
X174910000Y-104710000D01*
%TO.N,Net-(J3-Pad3)*%
X167300000Y-108380000D02*
X169545489Y-106134511D01*
X169545489Y-106134511D02*
X170945489Y-106134511D01*
X170945489Y-106134511D02*
X172370000Y-104710000D01*
%TO.N,Net-(J3-Pad4)*%
X164530000Y-108380000D02*
X165892011Y-107017989D01*
X165892011Y-107017989D02*
X167522011Y-107017989D01*
X167522011Y-107017989D02*
X169830000Y-104710000D01*
%TO.N,Net-(J4-Pad1)*%
X112840000Y-108380000D02*
X113790000Y-108380000D01*
X113790000Y-108380000D02*
X117450000Y-104720000D01*
%TO.N,Net-(J4-Pad2)*%
X110070000Y-108380000D02*
X111432011Y-107017989D01*
X111432011Y-107017989D02*
X112612011Y-107017989D01*
X112612011Y-107017989D02*
X114910000Y-104720000D01*
%TO.N,Net-(J4-Pad3)*%
X107300000Y-108380000D02*
X109535489Y-106144511D01*
X109535489Y-106144511D02*
X110945489Y-106144511D01*
X110945489Y-106144511D02*
X112370000Y-104720000D01*
%TO.N,Net-(J4-Pad4)*%
X104530000Y-108380000D02*
X105892011Y-107017989D01*
X105892011Y-107017989D02*
X107532011Y-107017989D01*
X107532011Y-107017989D02*
X109830000Y-104720000D01*
%TO.N,Net-(J1-Pad1)*%
X52840000Y-108410000D02*
X53780000Y-108410000D01*
X53780000Y-108410000D02*
X57450000Y-104740000D01*
%TO.N,Net-(J1-Pad2)*%
X50070000Y-108410000D02*
X51432011Y-107047989D01*
X51432011Y-107047989D02*
X52602011Y-107047989D01*
X52602011Y-107047989D02*
X54910000Y-104740000D01*
%TO.N,Net-(J1-Pad3)*%
X47300000Y-108410000D02*
X48662011Y-107047989D01*
X48662011Y-107047989D02*
X50062011Y-107047989D01*
X50062011Y-107047989D02*
X52370000Y-104740000D01*
%TO.N,Net-(J1-Pad5)*%
X41760000Y-108410000D02*
X44005489Y-106164511D01*
X44005489Y-106164511D02*
X45865489Y-106164511D01*
X45865489Y-106164511D02*
X47290000Y-104740000D01*
%TO.N,Net-(J1-Pad4)*%
X44530000Y-108410000D02*
X45892011Y-107047989D01*
X45892011Y-107047989D02*
X47522011Y-107047989D01*
X47522011Y-107047989D02*
X49830000Y-104740000D01*
%TD*%
M02*
