M48
; DRILL file {KiCad 6.0.2+dfsg-1} date Sun Mar  3 02:30:26 2024
; FORMAT={-:-/ absolute / inch / decimal}
; #@! TF.CreationDate,2024-03-03T02:30:26+01:00
; #@! TF.GenerationSoftware,Kicad,Pcbnew,6.0.2+dfsg-1
; #@! TF.FileFunction,Plated,1,2,PTH
FMAT,2
INCH
; #@! TA.AperFunction,Plated,PTH,ComponentDrill
T1C0.0236
; #@! TA.AperFunction,Plated,PTH,ComponentDrill
T2C0.0394
; #@! TA.AperFunction,Plated,PTH,ComponentDrill
T3C0.0413
; #@! TA.AperFunction,Plated,PTH,ComponentDrill
T4C0.1220
; #@! TA.AperFunction,Plated,PTH,ComponentDrill
T5C0.1535
%
G90
G05
T2
X1.4618Y-4.1236
X1.4622Y-3.2736
X1.4622Y-3.722
X1.5618Y-4.1236
X1.5622Y-3.2736
X1.5622Y-3.722
X1.6618Y-4.1236
X1.6622Y-3.2736
X1.6622Y-3.722
X1.7618Y-4.1236
X1.7622Y-3.2736
X1.7622Y-3.722
X1.8618Y-4.1236
X1.8622Y-3.2736
X1.8622Y-3.722
X1.9618Y-4.1236
X1.9622Y-3.2736
X1.9622Y-3.722
X2.0618Y-4.1236
X2.0622Y-3.2736
X2.0622Y-3.722
X2.1618Y-4.1236
X2.1622Y-3.2736
X2.1622Y-3.722
X2.2618Y-4.1236
X2.2622Y-3.2736
X2.2622Y-3.722
X3.824Y-4.1228
X3.826Y-3.2736
X3.826Y-3.7228
X3.924Y-4.1228
X3.926Y-3.2736
X3.926Y-3.7228
X4.024Y-4.1228
X4.026Y-3.2736
X4.026Y-3.7228
X4.124Y-4.1228
X4.126Y-3.2736
X4.126Y-3.7228
X4.224Y-4.1228
X4.226Y-3.2736
X4.226Y-3.7228
X4.324Y-4.1228
X4.326Y-3.2736
X4.326Y-3.7228
X4.424Y-4.1228
X4.426Y-3.2736
X4.426Y-3.7228
X4.524Y-4.1228
X4.526Y-3.2736
X4.526Y-3.7228
X4.624Y-4.1228
X4.626Y-3.2736
X4.626Y-3.7228
X6.1862Y-4.1224
X6.1882Y-3.2736
X6.1882Y-3.7224
X6.2862Y-4.1224
X6.2882Y-3.2736
X6.2882Y-3.7224
X6.3862Y-4.1224
X6.3882Y-3.2736
X6.3882Y-3.7224
X6.4862Y-4.1224
X6.4882Y-3.2736
X6.4882Y-3.7224
X6.5862Y-4.1224
X6.5882Y-3.2736
X6.5882Y-3.7224
X6.6862Y-4.1224
X6.6882Y-3.2736
X6.6882Y-3.7224
X6.7862Y-4.1224
X6.7882Y-3.2736
X6.7882Y-3.7224
X6.8862Y-4.1224
X6.8882Y-3.2736
X6.8882Y-3.7224
X6.9862Y-4.1224
X6.9882Y-3.2736
X6.9882Y-3.7224
X8.5484Y-4.1228
X8.55Y-3.2732
X8.5504Y-3.7224
X8.6484Y-4.1228
X8.65Y-3.2732
X8.6504Y-3.7224
X8.7484Y-4.1228
X8.75Y-3.2732
X8.7504Y-3.7224
X8.8484Y-4.1228
X8.85Y-3.2732
X8.8504Y-3.7224
X8.9484Y-4.1228
X8.95Y-3.2732
X8.9504Y-3.7224
X9.0484Y-4.1228
X9.05Y-3.2732
X9.0504Y-3.7224
X9.1484Y-4.1228
X9.15Y-3.2732
X9.1504Y-3.7224
X9.2484Y-4.1228
X9.25Y-3.2732
X9.2504Y-3.7224
X9.3484Y-4.1228
X9.35Y-3.2732
X9.3504Y-3.7224
T3
X1.6441Y-4.2681
X1.6443Y-3.5772
X1.6986Y-4.3799
X1.6988Y-3.4654
X1.7531Y-4.2681
X1.7533Y-3.5772
X1.8077Y-4.3799
X1.8079Y-3.4654
X1.8622Y-4.2681
X1.8624Y-3.5772
X1.9167Y-4.3799
X1.9169Y-3.4654
X1.9713Y-4.2681
X1.9715Y-3.5772
X2.0258Y-4.3799
X2.026Y-3.4654
X2.0803Y-4.2681
X2.0805Y-3.5772
X4.0063Y-4.2669
X4.0079Y-3.5776
X4.0608Y-4.3787
X4.0624Y-3.4657
X4.1154Y-4.2669
X4.1169Y-3.5776
X4.1699Y-4.3787
X4.1715Y-3.4657
X4.2244Y-4.2669
X4.226Y-3.5776
X4.2789Y-4.3787
X4.2805Y-3.4657
X4.3335Y-4.2669
X4.335Y-3.5776
X4.388Y-4.3787
X4.3896Y-3.4657
X4.4425Y-4.2669
X4.4441Y-3.5776
X6.3685Y-4.2669
X6.3701Y-3.5776
X6.423Y-4.3787
X6.4246Y-3.4657
X6.4776Y-4.2669
X6.4791Y-3.5776
X6.5321Y-4.3787
X6.5337Y-3.4657
X6.5866Y-4.2669
X6.5882Y-3.5776
X6.6411Y-4.3787
X6.6427Y-3.4657
X6.6957Y-4.2669
X6.6972Y-3.5776
X6.7502Y-4.3787
X6.7518Y-3.4657
X6.8047Y-4.2669
X6.8063Y-3.5776
X8.7307Y-4.2669
X8.7323Y-3.5772
X8.7852Y-4.3787
X8.7868Y-3.4654
X8.8398Y-4.2669
X8.8413Y-3.5772
X8.8943Y-4.3787
X8.8959Y-3.4654
X8.9488Y-4.2669
X8.9504Y-3.5772
X9.0033Y-4.3787
X9.0049Y-3.4654
X9.0579Y-4.2669
X9.0594Y-3.5772
X9.1124Y-4.3787
X9.114Y-3.4654
X9.1669Y-4.2669
X9.1685Y-3.5772
T4
X1.3703Y-4.324
X1.3705Y-3.5213
X2.3541Y-4.324
X2.3543Y-3.5213
X3.7325Y-4.3228
X3.7341Y-3.5217
X4.7163Y-4.3228
X4.7179Y-3.5217
X6.0947Y-4.3228
X6.0963Y-3.5217
X7.0785Y-4.3228
X7.0801Y-3.5217
X8.4569Y-4.3228
X8.4585Y-3.5213
X9.4407Y-4.3228
X9.4423Y-3.5213
T5
X2.8504Y-4.2394
X2.8524Y-3.8661
X3.2795Y-4.2394
X3.2815Y-3.8661
X5.2114Y-4.2394
X5.2161Y-3.8669
X5.6406Y-4.2394
X5.6453Y-3.8669
X7.5752Y-4.2398
X7.578Y-3.8673
X8.0043Y-4.2398
X8.0071Y-3.8673
X9.9374Y-4.2394
X9.9409Y-3.8669
X10.3665Y-4.2394
X10.3701Y-3.8669
T1
G00X2.6929Y-4.5701
M15
G01X2.6929Y-4.6094
M16
G05
G00X2.6949Y-3.5157
M15
G01X2.6949Y-3.4764
M16
G05
G00X3.437Y-4.5701
M15
G01X3.437Y-4.6094
M16
G05
G00X3.439Y-3.5157
M15
G01X3.439Y-3.4764
M16
G05
G00X5.0539Y-4.5701
M15
G01X5.0539Y-4.6094
M16
G05
G00X5.0587Y-3.5165
M15
G01X5.0587Y-3.4772
M16
G05
G00X5.798Y-4.5701
M15
G01X5.798Y-4.6094
M16
G05
G00X5.8028Y-3.5165
M15
G01X5.8028Y-3.4772
M16
G05
G00X7.4177Y-4.5705
M15
G01X7.4177Y-4.6098
M16
G05
G00X7.4205Y-3.5169
M15
G01X7.4205Y-3.4776
M16
G05
G00X8.1618Y-4.5705
M15
G01X8.1618Y-4.6098
M16
G05
G00X8.1646Y-3.5169
M15
G01X8.1646Y-3.4776
M16
G05
G00X9.7799Y-4.5701
M15
G01X9.7799Y-4.6094
M16
G05
G00X9.7835Y-3.5165
M15
G01X9.7835Y-3.4772
M16
G05
G00X10.524Y-4.5701
M15
G01X10.524Y-4.6094
M16
G05
G00X10.5276Y-3.5165
M15
G01X10.5276Y-3.4772
M16
G05
T0
M30
