M48
; DRILL file {KiCad (6.0.7)} date Thu Feb  8 01:47:43 2024
; FORMAT={-:-/ absolute / metric / decimal}
; #@! TF.CreationDate,2024-02-08T01:47:43+01:00
; #@! TF.GenerationSoftware,Kicad,Pcbnew,(6.0.7)
; #@! TF.FileFunction,Plated,1,2,PTH
FMAT,2
METRIC
; #@! TA.AperFunction,Plated,PTH,ComponentDrill
T1C0.600
; #@! TA.AperFunction,Plated,PTH,ComponentDrill
T2C1.000
; #@! TA.AperFunction,Plated,PTH,ComponentDrill
T3C1.050
; #@! TA.AperFunction,Plated,PTH,ComponentDrill
T4C3.100
; #@! TA.AperFunction,Plated,PTH,ComponentDrill
T5C3.900
%
G90
G05
T2
X31.17Y-46.22
X33.71Y-46.22
X36.25Y-46.22
X38.79Y-46.22
X41.33Y-46.22
X43.87Y-46.22
X46.41Y-46.22
X91.15Y-46.225
X93.69Y-46.225
X96.23Y-46.225
X98.77Y-46.225
X101.31Y-46.225
X103.85Y-46.225
X106.39Y-46.225
X151.17Y-46.23
X153.71Y-46.23
X156.25Y-46.23
X158.79Y-46.23
X161.33Y-46.23
X163.87Y-46.23
X166.41Y-46.23
X211.16Y-46.23
X213.7Y-46.23
X216.24Y-46.23
X218.78Y-46.23
X221.32Y-46.23
X223.86Y-46.23
X226.4Y-46.23
T3
X33.315Y-72.74
X33.34Y-55.16
X34.7Y-75.58
X34.725Y-52.32
X36.085Y-72.74
X36.11Y-55.16
X37.47Y-75.58
X37.495Y-52.32
X38.855Y-72.74
X38.88Y-55.16
X40.24Y-75.58
X40.265Y-52.32
X41.625Y-72.74
X41.65Y-55.16
X43.01Y-75.58
X43.035Y-52.32
X44.395Y-72.74
X44.42Y-55.16
X93.305Y-72.71
X93.36Y-55.19
X94.69Y-75.55
X94.745Y-52.35
X96.075Y-72.71
X96.13Y-55.19
X97.46Y-75.55
X97.515Y-52.35
X98.845Y-72.71
X98.9Y-55.19
X100.23Y-75.55
X100.285Y-52.35
X101.615Y-72.71
X101.67Y-55.19
X103.0Y-75.55
X103.055Y-52.35
X104.385Y-72.71
X104.44Y-55.19
X153.315Y-72.7
X153.35Y-55.19
X154.7Y-75.54
X154.735Y-52.35
X156.085Y-72.7
X156.12Y-55.19
X157.47Y-75.54
X157.505Y-52.35
X158.855Y-72.7
X158.89Y-55.19
X160.24Y-75.54
X160.275Y-52.35
X161.625Y-72.7
X161.66Y-55.19
X163.01Y-75.54
X163.045Y-52.35
X164.395Y-72.7
X164.43Y-55.19
X213.305Y-72.71
X213.35Y-55.2
X214.69Y-75.55
X214.735Y-52.36
X216.075Y-72.71
X216.12Y-55.2
X217.46Y-75.55
X217.505Y-52.36
X218.845Y-72.71
X218.89Y-55.2
X220.23Y-75.55
X220.275Y-52.36
X221.615Y-72.71
X221.66Y-55.2
X223.0Y-75.55
X223.045Y-52.36
X224.385Y-72.71
X224.43Y-55.2
T4
X26.36Y-74.16
X26.385Y-53.74
X51.35Y-74.16
X51.375Y-53.74
X86.35Y-74.13
X86.405Y-53.77
X111.34Y-74.13
X111.395Y-53.77
X146.36Y-74.12
X146.395Y-53.77
X171.35Y-74.12
X171.385Y-53.77
X206.35Y-74.13
X206.395Y-53.78
X231.34Y-74.13
X231.385Y-53.78
T5
X63.94Y-71.99
X64.04Y-62.54
X74.84Y-71.99
X74.94Y-62.54
X123.93Y-72.0
X124.04Y-62.54
X134.83Y-72.0
X134.94Y-62.54
X183.93Y-72.0
X184.04Y-62.54
X194.83Y-72.0
X194.94Y-62.54
X243.94Y-72.0
X244.05Y-62.53
X254.84Y-72.0
X254.95Y-62.53
T1
X59.94Y-80.39G85X59.94Y-81.39
G05
X60.04Y-53.64G85X60.04Y-52.64
G05
X78.84Y-80.39G85X78.84Y-81.39
G05
X78.94Y-53.64G85X78.94Y-52.64
G05
X119.93Y-80.4G85X119.93Y-81.4
G05
X120.04Y-53.64G85X120.04Y-52.64
G05
X138.83Y-80.4G85X138.83Y-81.4
G05
X138.94Y-53.64G85X138.94Y-52.64
G05
X179.93Y-80.4G85X179.93Y-81.4
G05
X180.04Y-53.64G85X180.04Y-52.64
G05
X198.83Y-80.4G85X198.83Y-81.4
G05
X198.94Y-53.64G85X198.94Y-52.64
G05
X239.94Y-80.4G85X239.94Y-81.4
G05
X240.05Y-53.63G85X240.05Y-52.63
G05
X258.84Y-80.4G85X258.84Y-81.4
G05
X258.95Y-53.63G85X258.95Y-52.63
G05
T0
M30
