%TF.GenerationSoftware,KiCad,Pcbnew,(6.0.7)*%
%TF.CreationDate,2024-02-08T01:47:39+01:00*%
%TF.ProjectId,RACK_CONNECTOR,5241434b-5f43-44f4-9e4e-4543544f522e,rev?*%
%TF.SameCoordinates,Original*%
%TF.FileFunction,Legend,Top*%
%TF.FilePolarity,Positive*%
%FSLAX46Y46*%
G04 Gerber Fmt 4.6, Leading zero omitted, Abs format (unit mm)*
G04 Created by KiCad (PCBNEW (6.0.7)) date 2024-02-08 01:47:39*
%MOMM*%
%LPD*%
G01*
G04 APERTURE LIST*
%ADD10C,0.150000*%
%ADD11C,0.127000*%
%ADD12C,0.200000*%
%ADD13C,0.120000*%
G04 APERTURE END LIST*
D10*
%TO.C,J11*%
X110570476Y-59637380D02*
X110570476Y-60351666D01*
X110522857Y-60494523D01*
X110427619Y-60589761D01*
X110284761Y-60637380D01*
X110189523Y-60637380D01*
X111570476Y-60637380D02*
X110999047Y-60637380D01*
X111284761Y-60637380D02*
X111284761Y-59637380D01*
X111189523Y-59780238D01*
X111094285Y-59875476D01*
X110999047Y-59923095D01*
X112522857Y-60637380D02*
X111951428Y-60637380D01*
X112237142Y-60637380D02*
X112237142Y-59637380D01*
X112141904Y-59780238D01*
X112046666Y-59875476D01*
X111951428Y-59923095D01*
%TO.C,J9*%
X231036666Y-59647380D02*
X231036666Y-60361666D01*
X230989047Y-60504523D01*
X230893809Y-60599761D01*
X230750952Y-60647380D01*
X230655714Y-60647380D01*
X231560476Y-60647380D02*
X231750952Y-60647380D01*
X231846190Y-60599761D01*
X231893809Y-60552142D01*
X231989047Y-60409285D01*
X232036666Y-60218809D01*
X232036666Y-59837857D01*
X231989047Y-59742619D01*
X231941428Y-59695000D01*
X231846190Y-59647380D01*
X231655714Y-59647380D01*
X231560476Y-59695000D01*
X231512857Y-59742619D01*
X231465238Y-59837857D01*
X231465238Y-60075952D01*
X231512857Y-60171190D01*
X231560476Y-60218809D01*
X231655714Y-60266428D01*
X231846190Y-60266428D01*
X231941428Y-60218809D01*
X231989047Y-60171190D01*
X232036666Y-60075952D01*
%TO.C,J14*%
X241105476Y-64787380D02*
X241105476Y-65501666D01*
X241057857Y-65644523D01*
X240962619Y-65739761D01*
X240819761Y-65787380D01*
X240724523Y-65787380D01*
X242105476Y-65787380D02*
X241534047Y-65787380D01*
X241819761Y-65787380D02*
X241819761Y-64787380D01*
X241724523Y-64930238D01*
X241629285Y-65025476D01*
X241534047Y-65073095D01*
X242962619Y-65120714D02*
X242962619Y-65787380D01*
X242724523Y-64739761D02*
X242486428Y-65454047D01*
X243105476Y-65454047D01*
%TO.C,J15*%
X121095476Y-64787380D02*
X121095476Y-65501666D01*
X121047857Y-65644523D01*
X120952619Y-65739761D01*
X120809761Y-65787380D01*
X120714523Y-65787380D01*
X122095476Y-65787380D02*
X121524047Y-65787380D01*
X121809761Y-65787380D02*
X121809761Y-64787380D01*
X121714523Y-64930238D01*
X121619285Y-65025476D01*
X121524047Y-65073095D01*
X123000238Y-64787380D02*
X122524047Y-64787380D01*
X122476428Y-65263571D01*
X122524047Y-65215952D01*
X122619285Y-65168333D01*
X122857380Y-65168333D01*
X122952619Y-65215952D01*
X123000238Y-65263571D01*
X123047857Y-65358809D01*
X123047857Y-65596904D01*
X123000238Y-65692142D01*
X122952619Y-65739761D01*
X122857380Y-65787380D01*
X122619285Y-65787380D01*
X122524047Y-65739761D01*
X122476428Y-65692142D01*
%TO.C,J19*%
X85555476Y-67167380D02*
X85555476Y-67881666D01*
X85507857Y-68024523D01*
X85412619Y-68119761D01*
X85269761Y-68167380D01*
X85174523Y-68167380D01*
X86555476Y-68167380D02*
X85984047Y-68167380D01*
X86269761Y-68167380D02*
X86269761Y-67167380D01*
X86174523Y-67310238D01*
X86079285Y-67405476D01*
X85984047Y-67453095D01*
X87031666Y-68167380D02*
X87222142Y-68167380D01*
X87317380Y-68119761D01*
X87365000Y-68072142D01*
X87460238Y-67929285D01*
X87507857Y-67738809D01*
X87507857Y-67357857D01*
X87460238Y-67262619D01*
X87412619Y-67215000D01*
X87317380Y-67167380D01*
X87126904Y-67167380D01*
X87031666Y-67215000D01*
X86984047Y-67262619D01*
X86936428Y-67357857D01*
X86936428Y-67595952D01*
X86984047Y-67691190D01*
X87031666Y-67738809D01*
X87126904Y-67786428D01*
X87317380Y-67786428D01*
X87412619Y-67738809D01*
X87460238Y-67691190D01*
X87507857Y-67595952D01*
%TO.C,J6*%
X168632380Y-46563333D02*
X169346666Y-46563333D01*
X169489523Y-46610952D01*
X169584761Y-46706190D01*
X169632380Y-46849047D01*
X169632380Y-46944285D01*
X168632380Y-45658571D02*
X168632380Y-45849047D01*
X168680000Y-45944285D01*
X168727619Y-45991904D01*
X168870476Y-46087142D01*
X169060952Y-46134761D01*
X169441904Y-46134761D01*
X169537142Y-46087142D01*
X169584761Y-46039523D01*
X169632380Y-45944285D01*
X169632380Y-45753809D01*
X169584761Y-45658571D01*
X169537142Y-45610952D01*
X169441904Y-45563333D01*
X169203809Y-45563333D01*
X169108571Y-45610952D01*
X169060952Y-45658571D01*
X169013333Y-45753809D01*
X169013333Y-45944285D01*
X169060952Y-46039523D01*
X169108571Y-46087142D01*
X169203809Y-46134761D01*
%TO.C,J16*%
X61105476Y-64777380D02*
X61105476Y-65491666D01*
X61057857Y-65634523D01*
X60962619Y-65729761D01*
X60819761Y-65777380D01*
X60724523Y-65777380D01*
X62105476Y-65777380D02*
X61534047Y-65777380D01*
X61819761Y-65777380D02*
X61819761Y-64777380D01*
X61724523Y-64920238D01*
X61629285Y-65015476D01*
X61534047Y-65063095D01*
X62962619Y-64777380D02*
X62772142Y-64777380D01*
X62676904Y-64825000D01*
X62629285Y-64872619D01*
X62534047Y-65015476D01*
X62486428Y-65205952D01*
X62486428Y-65586904D01*
X62534047Y-65682142D01*
X62581666Y-65729761D01*
X62676904Y-65777380D01*
X62867380Y-65777380D01*
X62962619Y-65729761D01*
X63010238Y-65682142D01*
X63057857Y-65586904D01*
X63057857Y-65348809D01*
X63010238Y-65253571D01*
X62962619Y-65205952D01*
X62867380Y-65158333D01*
X62676904Y-65158333D01*
X62581666Y-65205952D01*
X62534047Y-65253571D01*
X62486428Y-65348809D01*
%TO.C,J4*%
X76631666Y-67597380D02*
X76631666Y-68311666D01*
X76584047Y-68454523D01*
X76488809Y-68549761D01*
X76345952Y-68597380D01*
X76250714Y-68597380D01*
X77536428Y-67930714D02*
X77536428Y-68597380D01*
X77298333Y-67549761D02*
X77060238Y-68264047D01*
X77679285Y-68264047D01*
%TO.C,J20*%
X25565476Y-67197380D02*
X25565476Y-67911666D01*
X25517857Y-68054523D01*
X25422619Y-68149761D01*
X25279761Y-68197380D01*
X25184523Y-68197380D01*
X25994047Y-67292619D02*
X26041666Y-67245000D01*
X26136904Y-67197380D01*
X26375000Y-67197380D01*
X26470238Y-67245000D01*
X26517857Y-67292619D01*
X26565476Y-67387857D01*
X26565476Y-67483095D01*
X26517857Y-67625952D01*
X25946428Y-68197380D01*
X26565476Y-68197380D01*
X27184523Y-67197380D02*
X27279761Y-67197380D01*
X27375000Y-67245000D01*
X27422619Y-67292619D01*
X27470238Y-67387857D01*
X27517857Y-67578333D01*
X27517857Y-67816428D01*
X27470238Y-68006904D01*
X27422619Y-68102142D01*
X27375000Y-68149761D01*
X27279761Y-68197380D01*
X27184523Y-68197380D01*
X27089285Y-68149761D01*
X27041666Y-68102142D01*
X26994047Y-68006904D01*
X26946428Y-67816428D01*
X26946428Y-67578333D01*
X26994047Y-67387857D01*
X27041666Y-67292619D01*
X27089285Y-67245000D01*
X27184523Y-67197380D01*
%TO.C,J18*%
X145565476Y-67157380D02*
X145565476Y-67871666D01*
X145517857Y-68014523D01*
X145422619Y-68109761D01*
X145279761Y-68157380D01*
X145184523Y-68157380D01*
X146565476Y-68157380D02*
X145994047Y-68157380D01*
X146279761Y-68157380D02*
X146279761Y-67157380D01*
X146184523Y-67300238D01*
X146089285Y-67395476D01*
X145994047Y-67443095D01*
X147136904Y-67585952D02*
X147041666Y-67538333D01*
X146994047Y-67490714D01*
X146946428Y-67395476D01*
X146946428Y-67347857D01*
X146994047Y-67252619D01*
X147041666Y-67205000D01*
X147136904Y-67157380D01*
X147327380Y-67157380D01*
X147422619Y-67205000D01*
X147470238Y-67252619D01*
X147517857Y-67347857D01*
X147517857Y-67395476D01*
X147470238Y-67490714D01*
X147422619Y-67538333D01*
X147327380Y-67585952D01*
X147136904Y-67585952D01*
X147041666Y-67633571D01*
X146994047Y-67681190D01*
X146946428Y-67776428D01*
X146946428Y-67966904D01*
X146994047Y-68062142D01*
X147041666Y-68109761D01*
X147136904Y-68157380D01*
X147327380Y-68157380D01*
X147422619Y-68109761D01*
X147470238Y-68062142D01*
X147517857Y-67966904D01*
X147517857Y-67776428D01*
X147470238Y-67681190D01*
X147422619Y-67633571D01*
X147327380Y-67585952D01*
%TO.C,J7*%
X108612380Y-46558333D02*
X109326666Y-46558333D01*
X109469523Y-46605952D01*
X109564761Y-46701190D01*
X109612380Y-46844047D01*
X109612380Y-46939285D01*
X108612380Y-46177380D02*
X108612380Y-45510714D01*
X109612380Y-45939285D01*
%TO.C,J17*%
X205555476Y-67167380D02*
X205555476Y-67881666D01*
X205507857Y-68024523D01*
X205412619Y-68119761D01*
X205269761Y-68167380D01*
X205174523Y-68167380D01*
X206555476Y-68167380D02*
X205984047Y-68167380D01*
X206269761Y-68167380D02*
X206269761Y-67167380D01*
X206174523Y-67310238D01*
X206079285Y-67405476D01*
X205984047Y-67453095D01*
X206888809Y-67167380D02*
X207555476Y-67167380D01*
X207126904Y-68167380D01*
%TO.C,J1*%
X196631666Y-67597380D02*
X196631666Y-68311666D01*
X196584047Y-68454523D01*
X196488809Y-68549761D01*
X196345952Y-68597380D01*
X196250714Y-68597380D01*
X197631666Y-68597380D02*
X197060238Y-68597380D01*
X197345952Y-68597380D02*
X197345952Y-67597380D01*
X197250714Y-67740238D01*
X197155476Y-67835476D01*
X197060238Y-67883095D01*
%TO.C,J3*%
X136631666Y-67597380D02*
X136631666Y-68311666D01*
X136584047Y-68454523D01*
X136488809Y-68549761D01*
X136345952Y-68597380D01*
X136250714Y-68597380D01*
X137012619Y-67597380D02*
X137631666Y-67597380D01*
X137298333Y-67978333D01*
X137441190Y-67978333D01*
X137536428Y-68025952D01*
X137584047Y-68073571D01*
X137631666Y-68168809D01*
X137631666Y-68406904D01*
X137584047Y-68502142D01*
X137536428Y-68549761D01*
X137441190Y-68597380D01*
X137155476Y-68597380D01*
X137060238Y-68549761D01*
X137012619Y-68502142D01*
%TO.C,J10*%
X170560476Y-59637380D02*
X170560476Y-60351666D01*
X170512857Y-60494523D01*
X170417619Y-60589761D01*
X170274761Y-60637380D01*
X170179523Y-60637380D01*
X171560476Y-60637380D02*
X170989047Y-60637380D01*
X171274761Y-60637380D02*
X171274761Y-59637380D01*
X171179523Y-59780238D01*
X171084285Y-59875476D01*
X170989047Y-59923095D01*
X172179523Y-59637380D02*
X172274761Y-59637380D01*
X172370000Y-59685000D01*
X172417619Y-59732619D01*
X172465238Y-59827857D01*
X172512857Y-60018333D01*
X172512857Y-60256428D01*
X172465238Y-60446904D01*
X172417619Y-60542142D01*
X172370000Y-60589761D01*
X172274761Y-60637380D01*
X172179523Y-60637380D01*
X172084285Y-60589761D01*
X172036666Y-60542142D01*
X171989047Y-60446904D01*
X171941428Y-60256428D01*
X171941428Y-60018333D01*
X171989047Y-59827857D01*
X172036666Y-59732619D01*
X172084285Y-59685000D01*
X172179523Y-59637380D01*
%TO.C,J12*%
X50550476Y-59607380D02*
X50550476Y-60321666D01*
X50502857Y-60464523D01*
X50407619Y-60559761D01*
X50264761Y-60607380D01*
X50169523Y-60607380D01*
X51550476Y-60607380D02*
X50979047Y-60607380D01*
X51264761Y-60607380D02*
X51264761Y-59607380D01*
X51169523Y-59750238D01*
X51074285Y-59845476D01*
X50979047Y-59893095D01*
X51931428Y-59702619D02*
X51979047Y-59655000D01*
X52074285Y-59607380D01*
X52312380Y-59607380D01*
X52407619Y-59655000D01*
X52455238Y-59702619D01*
X52502857Y-59797857D01*
X52502857Y-59893095D01*
X52455238Y-60035952D01*
X51883809Y-60607380D01*
X52502857Y-60607380D01*
%TO.C,J2*%
X256641666Y-67587380D02*
X256641666Y-68301666D01*
X256594047Y-68444523D01*
X256498809Y-68539761D01*
X256355952Y-68587380D01*
X256260714Y-68587380D01*
X257070238Y-67682619D02*
X257117857Y-67635000D01*
X257213095Y-67587380D01*
X257451190Y-67587380D01*
X257546428Y-67635000D01*
X257594047Y-67682619D01*
X257641666Y-67777857D01*
X257641666Y-67873095D01*
X257594047Y-68015952D01*
X257022619Y-68587380D01*
X257641666Y-68587380D01*
%TO.C,J8*%
X48632380Y-46553333D02*
X49346666Y-46553333D01*
X49489523Y-46600952D01*
X49584761Y-46696190D01*
X49632380Y-46839047D01*
X49632380Y-46934285D01*
X49060952Y-45934285D02*
X49013333Y-46029523D01*
X48965714Y-46077142D01*
X48870476Y-46124761D01*
X48822857Y-46124761D01*
X48727619Y-46077142D01*
X48680000Y-46029523D01*
X48632380Y-45934285D01*
X48632380Y-45743809D01*
X48680000Y-45648571D01*
X48727619Y-45600952D01*
X48822857Y-45553333D01*
X48870476Y-45553333D01*
X48965714Y-45600952D01*
X49013333Y-45648571D01*
X49060952Y-45743809D01*
X49060952Y-45934285D01*
X49108571Y-46029523D01*
X49156190Y-46077142D01*
X49251428Y-46124761D01*
X49441904Y-46124761D01*
X49537142Y-46077142D01*
X49584761Y-46029523D01*
X49632380Y-45934285D01*
X49632380Y-45743809D01*
X49584761Y-45648571D01*
X49537142Y-45600952D01*
X49441904Y-45553333D01*
X49251428Y-45553333D01*
X49156190Y-45600952D01*
X49108571Y-45648571D01*
X49060952Y-45743809D01*
%TO.C,J5*%
X228622380Y-46563333D02*
X229336666Y-46563333D01*
X229479523Y-46610952D01*
X229574761Y-46706190D01*
X229622380Y-46849047D01*
X229622380Y-46944285D01*
X228622380Y-45610952D02*
X228622380Y-46087142D01*
X229098571Y-46134761D01*
X229050952Y-46087142D01*
X229003333Y-45991904D01*
X229003333Y-45753809D01*
X229050952Y-45658571D01*
X229098571Y-45610952D01*
X229193809Y-45563333D01*
X229431904Y-45563333D01*
X229527142Y-45610952D01*
X229574761Y-45658571D01*
X229622380Y-45753809D01*
X229622380Y-45991904D01*
X229574761Y-46087142D01*
X229527142Y-46134761D01*
%TO.C,J13*%
X181095476Y-64787380D02*
X181095476Y-65501666D01*
X181047857Y-65644523D01*
X180952619Y-65739761D01*
X180809761Y-65787380D01*
X180714523Y-65787380D01*
X182095476Y-65787380D02*
X181524047Y-65787380D01*
X181809761Y-65787380D02*
X181809761Y-64787380D01*
X181714523Y-64930238D01*
X181619285Y-65025476D01*
X181524047Y-65073095D01*
X182428809Y-64787380D02*
X183047857Y-64787380D01*
X182714523Y-65168333D01*
X182857380Y-65168333D01*
X182952619Y-65215952D01*
X183000238Y-65263571D01*
X183047857Y-65358809D01*
X183047857Y-65596904D01*
X183000238Y-65692142D01*
X182952619Y-65739761D01*
X182857380Y-65787380D01*
X182571666Y-65787380D01*
X182476428Y-65739761D01*
X182428809Y-65692142D01*
D11*
%TO.C,J11*%
X114305000Y-56770000D02*
X114305000Y-44270000D01*
X83495000Y-44270000D02*
X83495000Y-56770000D01*
X83495000Y-56770000D02*
X114305000Y-56770000D01*
X114305000Y-44270000D02*
X83495000Y-44270000D01*
D12*
X93080000Y-57970000D02*
G75*
G03*
X93080000Y-57970000I-100000J0D01*
G01*
D11*
%TO.C,J9*%
X234295000Y-44280000D02*
X203485000Y-44280000D01*
X203485000Y-56780000D02*
X234295000Y-56780000D01*
X234295000Y-56780000D02*
X234295000Y-44280000D01*
X203485000Y-44280000D02*
X203485000Y-56780000D01*
D12*
X213070000Y-57980000D02*
G75*
G03*
X213070000Y-57980000I-100000J0D01*
G01*
D11*
%TO.C,J14*%
X238140000Y-72150000D02*
X237140000Y-72150000D01*
X252062000Y-69300000D02*
X246718000Y-69300000D01*
D13*
X259804000Y-83694000D02*
X238976000Y-83694000D01*
D11*
X259790000Y-79280000D02*
X259790000Y-94700000D01*
X238990000Y-94700000D02*
X238990000Y-79280000D01*
D13*
X259790000Y-94700000D02*
X259804000Y-83694000D01*
D11*
X257618000Y-69300000D02*
X259790000Y-69300000D01*
X238990000Y-69300000D02*
X241162000Y-69300000D01*
X238990000Y-69300000D02*
X238990000Y-79280000D01*
X259790000Y-94700000D02*
X238990000Y-94700000D01*
X261140000Y-72650000D02*
X261140000Y-71650000D01*
X260640000Y-72150000D02*
X261640000Y-72150000D01*
X259790000Y-69300000D02*
X259790000Y-79280000D01*
%TO.C,J15*%
X140630000Y-72150000D02*
X141630000Y-72150000D01*
X118980000Y-69300000D02*
X118980000Y-79280000D01*
D13*
X139780000Y-94700000D02*
X139794000Y-83694000D01*
D11*
X139780000Y-69300000D02*
X139780000Y-79280000D01*
X137608000Y-69300000D02*
X139780000Y-69300000D01*
X139780000Y-94700000D02*
X118980000Y-94700000D01*
D13*
X139794000Y-83694000D02*
X118966000Y-83694000D01*
D11*
X118980000Y-94700000D02*
X118980000Y-79280000D01*
X132052000Y-69300000D02*
X126708000Y-69300000D01*
X118980000Y-69300000D02*
X121152000Y-69300000D01*
X118130000Y-72150000D02*
X117130000Y-72150000D01*
X139780000Y-79280000D02*
X139780000Y-94700000D01*
X141130000Y-72650000D02*
X141130000Y-71650000D01*
%TO.C,J19*%
X83440000Y-71130000D02*
X83440000Y-83630000D01*
X83440000Y-83630000D02*
X114250000Y-83630000D01*
X114250000Y-83630000D02*
X114250000Y-71130000D01*
X114250000Y-71130000D02*
X83440000Y-71130000D01*
D12*
X104865000Y-69930000D02*
G75*
G03*
X104865000Y-69930000I-100000J0D01*
G01*
D13*
%TO.C,J6*%
X149840000Y-44900000D02*
X149840000Y-47560000D01*
X165140000Y-47560000D02*
X149840000Y-47560000D01*
X167740000Y-46230000D02*
X167740000Y-47560000D01*
X167740000Y-47560000D02*
X166410000Y-47560000D01*
X165140000Y-44900000D02*
X165140000Y-47560000D01*
X165140000Y-44900000D02*
X149840000Y-44900000D01*
D11*
%TO.C,J16*%
X58990000Y-94690000D02*
X58990000Y-79270000D01*
X58990000Y-69290000D02*
X58990000Y-79270000D01*
D13*
X79790000Y-94690000D02*
X79804000Y-83684000D01*
D11*
X79790000Y-69290000D02*
X79790000Y-79270000D01*
X77618000Y-69290000D02*
X79790000Y-69290000D01*
X80640000Y-72140000D02*
X81640000Y-72140000D01*
X58990000Y-69290000D02*
X61162000Y-69290000D01*
X79790000Y-94690000D02*
X58990000Y-94690000D01*
X79790000Y-79270000D02*
X79790000Y-94690000D01*
X72062000Y-69290000D02*
X66718000Y-69290000D01*
X81140000Y-72640000D02*
X81140000Y-71640000D01*
D13*
X79804000Y-83684000D02*
X58976000Y-83684000D01*
D11*
X58140000Y-72140000D02*
X57140000Y-72140000D01*
%TO.C,J4*%
X59090000Y-54540000D02*
X59090000Y-65240000D01*
X79890000Y-38140000D02*
X59090000Y-38140000D01*
X58240000Y-62640000D02*
X57240000Y-62640000D01*
X81240000Y-62140000D02*
X81240000Y-63140000D01*
X79890000Y-65240000D02*
X79890000Y-54540000D01*
X79890000Y-51790000D02*
X79890000Y-38140000D01*
X72090000Y-65240000D02*
X66890000Y-65240000D01*
X80740000Y-62640000D02*
X81740000Y-62640000D01*
X77740000Y-65240000D02*
X79890000Y-65240000D01*
D13*
X79904000Y-49330000D02*
X59076000Y-49330000D01*
D11*
X59090000Y-38140000D02*
X59090000Y-51790000D01*
X59090000Y-65240000D02*
X61240000Y-65240000D01*
%TO.C,J20*%
X54260000Y-83660000D02*
X54260000Y-71160000D01*
X23450000Y-71160000D02*
X23450000Y-83660000D01*
X54260000Y-71160000D02*
X23450000Y-71160000D01*
X23450000Y-83660000D02*
X54260000Y-83660000D01*
D12*
X44875000Y-69960000D02*
G75*
G03*
X44875000Y-69960000I-100000J0D01*
G01*
D11*
%TO.C,J18*%
X174260000Y-71120000D02*
X143450000Y-71120000D01*
X143450000Y-83620000D02*
X174260000Y-83620000D01*
X174260000Y-83620000D02*
X174260000Y-71120000D01*
X143450000Y-71120000D02*
X143450000Y-83620000D01*
D12*
X164875000Y-69920000D02*
G75*
G03*
X164875000Y-69920000I-100000J0D01*
G01*
D13*
%TO.C,J7*%
X107720000Y-47555000D02*
X106390000Y-47555000D01*
X105120000Y-44895000D02*
X105120000Y-47555000D01*
X89820000Y-44895000D02*
X89820000Y-47555000D01*
X105120000Y-44895000D02*
X89820000Y-44895000D01*
X105120000Y-47555000D02*
X89820000Y-47555000D01*
X107720000Y-46225000D02*
X107720000Y-47555000D01*
D11*
%TO.C,J17*%
X234250000Y-71130000D02*
X203440000Y-71130000D01*
X203440000Y-83630000D02*
X234250000Y-83630000D01*
X234250000Y-83630000D02*
X234250000Y-71130000D01*
X203440000Y-71130000D02*
X203440000Y-83630000D01*
D12*
X224865000Y-69930000D02*
G75*
G03*
X224865000Y-69930000I-100000J0D01*
G01*
D11*
%TO.C,J1*%
X200740000Y-62640000D02*
X201740000Y-62640000D01*
X199890000Y-65240000D02*
X199890000Y-54540000D01*
X199890000Y-51790000D02*
X199890000Y-38140000D01*
X197740000Y-65240000D02*
X199890000Y-65240000D01*
X199890000Y-38140000D02*
X179090000Y-38140000D01*
D13*
X199904000Y-49330000D02*
X179076000Y-49330000D01*
D11*
X179090000Y-38140000D02*
X179090000Y-51790000D01*
X179090000Y-54540000D02*
X179090000Y-65240000D01*
X201240000Y-62140000D02*
X201240000Y-63140000D01*
X192090000Y-65240000D02*
X186890000Y-65240000D01*
X179090000Y-65240000D02*
X181240000Y-65240000D01*
X178240000Y-62640000D02*
X177240000Y-62640000D01*
%TO.C,J3*%
X119090000Y-38140000D02*
X119090000Y-51790000D01*
X118240000Y-62640000D02*
X117240000Y-62640000D01*
X137740000Y-65240000D02*
X139890000Y-65240000D01*
X139890000Y-38140000D02*
X119090000Y-38140000D01*
X139890000Y-65240000D02*
X139890000Y-54540000D01*
X132090000Y-65240000D02*
X126890000Y-65240000D01*
X139890000Y-51790000D02*
X139890000Y-38140000D01*
X119090000Y-54540000D02*
X119090000Y-65240000D01*
X119090000Y-65240000D02*
X121240000Y-65240000D01*
X140740000Y-62640000D02*
X141740000Y-62640000D01*
X141240000Y-62140000D02*
X141240000Y-63140000D01*
D13*
X139904000Y-49330000D02*
X119076000Y-49330000D01*
D11*
%TO.C,J10*%
X174295000Y-44270000D02*
X143485000Y-44270000D01*
X143485000Y-44270000D02*
X143485000Y-56770000D01*
X143485000Y-56770000D02*
X174295000Y-56770000D01*
X174295000Y-56770000D02*
X174295000Y-44270000D01*
D12*
X153070000Y-57970000D02*
G75*
G03*
X153070000Y-57970000I-100000J0D01*
G01*
D11*
%TO.C,J12*%
X54285000Y-56740000D02*
X54285000Y-44240000D01*
X23475000Y-44240000D02*
X23475000Y-56740000D01*
X54285000Y-44240000D02*
X23475000Y-44240000D01*
X23475000Y-56740000D02*
X54285000Y-56740000D01*
D12*
X33060000Y-57940000D02*
G75*
G03*
X33060000Y-57940000I-100000J0D01*
G01*
D11*
%TO.C,J2*%
X238250000Y-62630000D02*
X237250000Y-62630000D01*
X257750000Y-65230000D02*
X259900000Y-65230000D01*
X239100000Y-38130000D02*
X239100000Y-51780000D01*
X259900000Y-65230000D02*
X259900000Y-54530000D01*
X260750000Y-62630000D02*
X261750000Y-62630000D01*
X239100000Y-54530000D02*
X239100000Y-65230000D01*
X239100000Y-65230000D02*
X241250000Y-65230000D01*
X259900000Y-51780000D02*
X259900000Y-38130000D01*
D13*
X259914000Y-49320000D02*
X239086000Y-49320000D01*
D11*
X259900000Y-38130000D02*
X239100000Y-38130000D01*
X261250000Y-62130000D02*
X261250000Y-63130000D01*
X252100000Y-65230000D02*
X246900000Y-65230000D01*
D13*
%TO.C,J8*%
X45140000Y-47550000D02*
X29840000Y-47550000D01*
X45140000Y-44890000D02*
X29840000Y-44890000D01*
X29840000Y-44890000D02*
X29840000Y-47550000D01*
X45140000Y-44890000D02*
X45140000Y-47550000D01*
X47740000Y-47550000D02*
X46410000Y-47550000D01*
X47740000Y-46220000D02*
X47740000Y-47550000D01*
%TO.C,J5*%
X225130000Y-44900000D02*
X209830000Y-44900000D01*
X227730000Y-46230000D02*
X227730000Y-47560000D01*
X227730000Y-47560000D02*
X226400000Y-47560000D01*
X225130000Y-47560000D02*
X209830000Y-47560000D01*
X209830000Y-44900000D02*
X209830000Y-47560000D01*
X225130000Y-44900000D02*
X225130000Y-47560000D01*
D11*
%TO.C,J13*%
X178980000Y-69300000D02*
X178980000Y-79280000D01*
X197608000Y-69300000D02*
X199780000Y-69300000D01*
X199780000Y-94700000D02*
X178980000Y-94700000D01*
X201130000Y-72650000D02*
X201130000Y-71650000D01*
X178980000Y-69300000D02*
X181152000Y-69300000D01*
X178980000Y-94700000D02*
X178980000Y-79280000D01*
X200630000Y-72150000D02*
X201630000Y-72150000D01*
D13*
X199794000Y-83694000D02*
X178966000Y-83694000D01*
D11*
X199780000Y-69300000D02*
X199780000Y-79280000D01*
X178130000Y-72150000D02*
X177130000Y-72150000D01*
X192052000Y-69300000D02*
X186708000Y-69300000D01*
D13*
X199780000Y-94700000D02*
X199794000Y-83694000D01*
D11*
X199780000Y-79280000D02*
X199780000Y-94700000D01*
%TD*%
M02*
